<svg viewBox="0 0 144 144" width="144" height="144" fill="none" xmlns="http://www.w3.org/2000/svg">
<path d="M0.00341797 4.87369C0.00341797 2.18202 2.18545 0 4.87711 0H139.13C141.821 0 144.003 2.18203 144.003 4.87369V139.126C144.003 141.818 141.821 144 139.13 144H4.87711C2.18544 144 0.00341797 141.818 0.00341797 139.126V4.87369Z" fill="#513893"/>
<g clip-path="url(#clip0_7564_26967)">
<path d="M122.258 87.4731L121.985 87.0902L120.824 79.1675L120.97 78.7159L120.355 76.0357L118.872 74.5434L117.33 74.1311L113.125 74.3373L111.349 75.2503L110.217 74.7791L104.615 75.6135L104.235 75.8884L99.2286 76.4186L98.4284 76.7524L97.1891 78.4312L96.5646 78.5195L96.4085 77.4789L92.7979 77.3709L89.0994 78.1367L88.6506 77.9894L85.3425 78.4901L83.7421 79.1479L83.1761 79.6584L82.2296 78.9515L81.0293 79.1282L81.5562 76.9978L81.4391 74.7987L81.9954 74.2882L82.2491 73.2573L82.1027 73.0119L83.1078 69.7819L83.2054 67.6319L84.9229 62.409L84.8253 61.9475L85.4303 59.8859L86.1915 59.8073L86.6403 59.9546L89.9289 59.2477L91.9489 58.5212L97.1306 57.7456L97.5795 57.8929L100.478 57.4609L100.927 57.6082L103.415 57.2351L103.796 56.9701L107.172 56.8915L107.943 56.3515L109.602 56.1061L110.041 56.2534L113.974 55.6643L116.14 54.496L116.891 52.4638L116.111 48.527L116.364 45.9351L115.701 44.3251L115.398 42.2339L115.545 41.7823L115.174 39.2887L114.608 38.3069L114.715 36.1569L113.281 33.6043L112.149 33.1331L108.031 33.9676L106.733 33.732L103.678 34.6155L101.2 34.9886L100.751 34.8413L98.2723 35.2144L97.8332 35.077L93.2663 35.7544L92.8857 36.0194H91.256V35.9704L91.6464 34.3308L91.9489 33.9676L92.9052 30.0896L92.6515 27.6353L91.0706 26.1626L87.1575 25.3969L84.8741 24.1697H83.1371L81.0976 23.669L80.7463 23.3646L78.3067 22.756L77.1942 22.913L75.2523 22L72.3638 22.3731L71.4954 23.2468L70.6952 27.3898L69.9926 28.5188L69.6413 31.6899L69.0362 34.1345L68.724 34.4977L68.119 36.9423L67.8165 37.3055L67.2993 39.4163L59.6585 40.5551L59.2779 40.83L51.4029 41.9983L49.178 42.7543L45.8309 43.039L45.5967 42.8721L39.3806 43.7949L39.1952 44.0305L35.6822 44.5607L35.3016 44.8356L33.0279 45.1792L26.4703 45.297L21.0836 46.102L19.3662 47.4274L18.0293 49.9603L18 51.2464L18.244 51.4133L18.4879 53.0823L18.7514 53.4652L19.1027 57.2449L18.927 57.4904L19.2979 59.984L19.9614 61.5941L20.2835 65.1677L21.0056 67.1901L22.2546 68.4958L23.8257 69.1143L28.7635 68.1719L29.2124 68.3093L30.6371 67.897L31.408 67.357L32.5302 67.8184L40.415 66.6403L40.7955 66.3752L42.8741 66.0709L43.3132 66.2084L44.9624 65.9629L45.1478 65.7273L50.1831 65.3935L51.3736 64.7946L59.2486 63.6263L60.9661 63.7932L61.5418 63.7049L61.4345 64.1565L61.1417 64.5197L60.7319 66.1593L60.4294 66.5127L58.3704 74.8969L58.4777 75.3583L56.5943 83.0258L55.4038 83.3694L54.1059 83.1338L49.539 83.8112L49.1585 84.0861L45.0112 84.7046L44.5623 84.5475L34.6185 86.03L29.915 87.159L29.4661 87.0215L26.8313 87.8364L25.5335 87.6106L23.8843 90.8405L24.7235 93.7073L25.2017 98.3215L25.0455 98.7731L26.2556 104.133L26.0019 105.243L26.3044 107.324L27.6217 109.042L29.6125 109.592L32.1984 109.847L37.3216 108.659L38.5316 108.267L39.6343 108.532L42.3666 108.335L45.4405 107.668L48.0362 106.637L48.7291 106.961L50.3783 106.922L50.1245 107.579L48.8169 112.901L49.3829 114.992L51.2175 117.181L52.3885 117.691L52.6422 117.534L54.2718 117.937L54.7305 117.839L58.3411 118.948L58.4972 119.203L60.9368 119.812H62.6738L66.0892 120.872L68.2165 120.971L69.895 120.303L71.0562 119.076L72.0613 114.118L72.3541 113.755L72.5102 112.272L72.3053 111.349L73.164 110.485L74.9401 103.26L81.927 102.219L82.3076 101.944L87.8992 101.11L89.1775 101.139L89.5581 100.864L92.3099 100.884L92.8759 100.373L95.1496 100.03L95.5985 100.187L98.4967 99.7549L98.8773 99.48L100.741 99.1953L101.19 99.3425L103.464 99.0087L104.44 98.4295L104.918 98.7927L109.065 98.1742L110.451 97.5361L112.168 97.7128L114.442 97.379L114.822 97.1041L116.901 96.7998L117.35 96.9471L120.248 96.5151L121.995 95.3959L122.844 93.992L123.049 92.4703L122.307 87.4633L122.258 87.4731ZM108.938 50.2549L109.358 50.196L108.831 50.9126L108.938 50.2549ZM106.85 47.5845L107.328 47.9379L107.182 48.3797L106.704 48.0263L106.85 47.5747V47.5845ZM106.518 52.5325L107.406 52.8271L107.943 53.6026L107.806 54.0542L106.674 53.583L105.894 52.6307L106.518 52.5423V52.5325ZM106.03 54.9476L105.406 55.036L105.347 54.6237L105.757 54.5648L106.03 54.9476ZM105.259 43.9815L105.708 44.1385L105.298 45.6897L105.279 46.966L104.41 46.8776L104.82 45.3265L104.693 44.492L104.244 44.3545L105.25 43.9815H105.259ZM104.371 49.44L104.313 49.0277L104.752 49.1749L105.054 49.7738L104.225 49.8916L104.371 49.44ZM21.9326 49.1651L22.0692 48.7233L22.5474 49.0768L21.9326 49.1651ZM27.8657 56.381L27.5925 55.9981L27.9438 55.5171L27.8657 56.381ZM34.9698 100.285L34.882 99.6567L35.3601 100.01L34.9796 100.285H34.9698ZM38.678 95.2486L39.1269 95.3959L39.1854 95.8082L38.678 95.2388V95.2486ZM38.4926 94.0018L38.0925 92.7746L38.2779 92.539L39.1366 92.6175L39.7612 94.0116L38.4926 93.992V94.0018ZM40.6394 95.6021L41.0493 95.5431L41.1078 95.9555L40.7565 96.4267L40.1027 96.3187L40.6394 95.6021ZM42.191 98.9891L40.8053 99.6174L40.3564 99.48L41.0883 98.724L42.1617 98.7829L42.6399 99.1364L42.191 98.9891ZM43.0497 91.8321L43.4888 91.9794L43.3425 92.4212L42.8936 92.2837L43.0497 91.8321ZM43.3425 103.937L43.2546 103.309L43.7035 103.456L43.9768 103.839L43.3522 103.927L43.3425 103.937ZM48.8657 98.2135L48.6803 98.4491L48.1729 97.8895L48.4656 96.9961L48.8852 96.9372L49.1585 97.3201L48.8657 98.2135ZM49.2853 93.884L48.8755 93.9429L48.7486 93.1084L49.3634 93.02L49.4219 93.4422L49.2853 93.884ZM55.355 94.905L54.9354 94.9639L55.3453 94.905H55.355ZM63.0739 81.9557L63.6789 81.239L64.1375 81.131L64.4888 81.4353L63.6691 81.936L63.2495 81.9949L63.0641 81.9459L63.0739 81.9557ZM66.5381 68.7118L67.4554 69.3696L66.4405 69.9881L67.1529 70.5968L67.6018 70.4888L67.7579 70.7441L67.4554 71.9712L68.0214 72.3345L69.0362 71.7258L69.1826 71.9712L68.8801 72.3345L69.3388 73.1003L70.5586 73.4046L72.237 72.737L72.6371 71.9712L72.7542 73.2966L75.0279 72.7861L75.6427 72.9432L75.7598 75.1325L73.164 76.88L72.9591 77.7047L70.1585 76.7917L69.0948 75.8786L69.6022 75.5743L71.5344 75.6234L71.4758 74.9656L70.9782 74.3962L69.5534 74.9165L69.1533 73.9446L69.2509 73.5322L68.8411 73.4341L68.0897 73.8955L68.2946 75.6823L69.5339 78.5981L69.4851 79.678L68.6849 81.3961L67.2407 81.2586L67.8165 80.3554L67.4554 79.1773L67.8652 78.4115L65.8843 78.5686L66.1868 77.3414L68.6264 77.9501L67.6018 76.8211L67.348 76.1044L66.6357 75.4957L67.1919 74.9754L66.2258 73.6599V72.7861L66.5283 72.4327L66.0697 71.6669L66.0112 71.0091L66.4698 70.0372L66.7821 69.6739L66.5674 68.7609L66.5381 68.7118ZM63.4837 55.1145L62.6445 55.2323L62.4298 52.2773L62.869 50.9323L63.3471 51.2857L64.04 53.1019L64.3913 52.9154L64.3327 53.1609L64.0204 53.5241L63.6106 55.1931L63.4837 55.1047V55.1145ZM64.9182 50.2156L64.9865 50.5101L64.6645 51.8158L63.9229 50.9912L64.6645 50.245L64.9085 50.2058L64.9182 50.2156ZM74.3253 70.4299L74.1691 70.1746L72.5493 69.7721L74.618 68.3388L74.2179 69.9783L74.3253 70.4397V70.4299ZM81.4684 46.4555L80.9317 47.0936L80.5218 46.9954L80.6194 46.5831L80.9902 46.3573L81.4684 46.4555ZM74.5888 48.8902L74.6473 48.9688L74.0228 49.0669L73.9642 48.6644L74.5888 48.9V48.8902ZM74.4521 50.4905L75.467 49.4989L75.5646 50.7654L75.4085 51.1973L74.2179 51.1679L74.4424 50.5003L74.4521 50.4905ZM78.3945 47.1329L78.1993 47.0642L78.3945 47.1133V47.1329ZM73.8276 50.5887L73.6324 50.7261L73.5739 50.2254L73.8178 50.5887H73.8276ZM71.3197 64.2547L71.7686 64.1467L71.6222 64.7652L71.2124 64.667L71.3099 64.2645L71.3197 64.2547ZM71.5246 66.0316L72.0321 65.7273L72.9396 65.5211L73.0469 65.9825L72.3443 67.1116L71.7296 66.9545L71.427 66.444L71.5344 66.0316H71.5246ZM72.4322 63.2336L72.0223 63.1355L72.1687 62.517L74.4619 64.6081L74.5204 65.2757L73.8081 65.5408L73.1055 64.9223L72.4419 63.2435L72.4322 63.2336ZM79.9168 51.2268L79.8192 51.6097L79.5167 51.0992L79.7607 50.9421L79.9071 51.1875V51.2268H79.9168ZM79.9071 48.5859H79.8875L79.8583 48.419L79.9363 48.4583L79.9071 48.5859ZM77.2918 43.8931L77.0186 43.5102L77.6138 43.2059L77.2918 43.8931ZM71.915 47.6827L71.8954 47.879L71.7783 47.5747L71.915 47.6827ZM69.5437 66.1985L70.3048 66.6109L70.6073 67.1214L70.4512 67.7399H69.5925L69.1338 66.9643L68.7825 66.6698L69.5437 66.2084V66.1985ZM69.5925 68.594L70.6659 68.6529L72.803 67.8773L72.9103 68.3388L71.6417 69.9783H70.7732L69.046 69.1045L68.8411 68.1915L69.6022 68.594H69.5925ZM74.5595 62.4482L74.9693 61.6825L75.4768 61.3781L75.8866 61.4763V63.214L75.3304 63.7343L74.6668 63.7834L74.5692 62.4482H74.5595ZM75.9842 66.2771L75.6231 65.9825L75.5353 65.5113L75.6329 65.099L75.9842 66.2771ZM75.4377 68.5351L75.184 67.8282H76.0525L76.8137 68.2308L77.0674 68.9376L76.9698 69.35L76.1599 69.1438L75.4377 68.5253V68.5351ZM75.8573 72.1087L75.7598 72.521L74.7839 71.1957L75.5548 71.5982L75.8573 72.1087ZM76.7454 61.4763L77.6626 61.2701L78.0139 61.5843L77.6529 62.1439L76.7356 61.4763H76.7454ZM80.8927 37.816L80.6487 37.8553L80.9024 37.551V37.816H80.8927ZM77.3406 39.8581L77.5651 40.025L77.1845 40.2901L77.3211 39.8581H77.3504H77.3406ZM71.4954 80.7678L71.1928 80.5027L71.954 80.0413L72.2077 80.2671L71.4954 80.7776V80.7678ZM70.2072 89.2697L70.0218 89.5054L69.7584 89.1225L70.2072 89.2697ZM63.7277 83.281L63.5325 83.5952L63.513 83.3792L63.7277 83.2909V83.281ZM64.323 88.6512H64.401L64.4596 89.0734L64.2449 89.2206L64.1571 88.9654L64.323 88.6512ZM63.2788 93.5698L63.0836 94.1687L62.6738 94.2276L62.7031 92.9415L62.5762 92.5488L62.6348 92.4801L63.2886 93.56L63.2788 93.5698ZM62.5274 94.6792L63.152 94.9737L62.6348 95.0915L62.4884 94.9737L62.5177 94.6792H62.5274ZM70.6366 80.1591L70.0316 80.8659L69.7291 80.3554L70.0902 79.7958L70.9001 80.002L70.6464 80.1591H70.6366ZM66.4991 96.7016L66.8309 96.5445L66.9772 96.79L66.948 96.9176L66.4991 96.7016ZM72.9689 79.4326V78.5588L73.2714 78.2054L74.0325 78.6079L74.2862 79.3246L74.1887 79.7369L73.73 79.8449L72.9689 79.4326ZM66.0014 77.0371L64.684 77.1549L64.3815 76.6346L64.9377 76.1241H65.8062L65.9624 76.3793L66.0112 77.0371H66.0014ZM64.645 78.225L64.8499 79.1479L64.645 79.9627L63.8253 78.8926L63.6204 77.9698L63.8643 77.8225L64.6352 78.225H64.645ZM60.1073 96.6427L60.0585 96.5544L60.2928 96.7212L60.1561 96.8194L60.1171 96.6427H60.1073ZM60.5855 91.5572L60.4586 91.7241H60.4391L60.566 91.4591V91.5572H60.5855ZM79.3216 84.3708L79.8778 84.4297L80.2096 85.2347L79.224 84.8224L79.3313 84.3806L79.3216 84.3708ZM88.0065 47.6238L88.1626 47.5452L88.4066 46.5733L88.7091 46.2199L89.0409 44.865L89.48 44.6294L89.7142 44.8159L89.7825 46.7206L88.1626 47.555L88.0065 47.6336V47.6238ZM89.6459 51.6391L89.2361 51.698L89.5874 51.2268L89.8313 51.3937L89.6557 51.6391H89.6459ZM89.724 42.9212L89.7533 42.8034L90.1924 42.4008L90.8755 42.7248L90.934 43.1371L89.7142 42.9212H89.724ZM92.0465 50.6377L91.9586 50.0192L92.4075 50.1665L92.4661 50.5887L92.0562 50.6476L92.0465 50.6377ZM91.9489 48.527L91.2365 49.4891L90.8267 49.548L91.0316 48.0263L92.632 47.3587L92.4758 47.8103L92.7491 48.1932L92.8662 49.0277L91.9489 48.527ZM93.803 51.0206L93.7444 50.5985L94.164 50.5396L94.6422 50.893L94.7007 51.3053L93.8127 51.0108L93.803 51.0206ZM99.0432 50.6574L98.8676 50.9028L98.3894 50.5494L99.1798 50.2156L99.0432 50.6672V50.6574ZM101.288 50.1174L101.112 50.353L101.053 49.9407L101.678 49.8523L101.297 50.1272L101.288 50.1174ZM102.098 45.5228L101.883 45.5523L101.824 45.1399L102.098 45.5228ZM100.702 46.1511L101.688 47.074L102.576 47.3685L101.571 47.7318L100.644 47.2409L100.283 46.2297L100.692 46.1708L100.702 46.1511ZM99.7165 43.7458L99.7751 44.1582L100.048 44.5411L99.6385 44.6L99.0725 43.628L99.7165 43.7458ZM92.0074 43.1862L93.6371 42.7248L94.086 42.8819L93.9981 43.7458L94.7788 44.6981L96.2231 44.4822L96.789 45.4639L97.4331 45.5817L98.5748 43.2746L99.4043 45.9253L99.2872 48.0754L98.9066 48.3503L98.4284 47.9968L97.8039 46.6027L97.355 46.4457L96.1743 47.0543L96.9744 48.2128L97.1013 49.0473L95.3546 48.6644L94.5934 49.2142L94.8081 46.4064L94.5153 45.8173L92.7003 45.0221L91.7147 44.1091L92.0074 43.2157V43.1862ZM87.1575 35.8329L87.7625 35.1162L88.6701 34.9101L89.0311 35.2144L88.1626 36.0783L86.9916 36.4416L87.1478 35.8231L87.1575 35.8329ZM86.0744 32.3182L86.533 33.0742L85.967 32.7207L86.0646 32.3182H86.0744ZM83.8494 36.9619L83.4884 36.6674L83.0785 36.5692L83.381 36.206L84.0446 36.1569L83.8397 36.9717L83.8494 36.9619ZM83.2347 33.3393L83.586 33.6436L83.0785 33.9479L82.7272 33.6436L83.2347 33.3393ZM78.8141 33.7614L79.1166 33.3982L80.395 34.3701L81.5562 34.8708L81.1464 35.6464L79.8778 34.6744L79.0678 34.4683L78.7653 34.8315L78.8141 33.7516V33.7614ZM79.0288 37.2859L78.98 37.4921L78.5702 37.3939L79.0191 37.2859H79.0288ZM60.3513 46.8482L61.0344 47.1722L61.3662 47.9772L61.1905 48.2226L60.605 48.5172L60 47.3292L60.3611 46.8482H60.3513ZM58.0678 47.182L58.8485 46.642L59.0827 46.8187L59.0047 47.6925L58.2337 48.2324L57.4043 48.3503L58.0776 47.182H58.0678ZM55.8527 47.9379L56.1259 48.3208L55.9698 48.7724L55.0232 48.0656L54.9647 47.6532L55.8527 47.9477V47.9379ZM54.2328 48.3993L54.2914 48.8117L53.6375 48.6939L54.2328 48.3993ZM48.1046 49.9505L48.5534 50.1076L48.612 50.5199L47.9289 50.196L48.1046 49.9505ZM36.5214 51.8944L36.9312 51.8355L38.2486 53.5536L37.4191 53.6714L36.5019 53.1707L36.3848 52.3362L36.5214 51.8846V51.8944ZM36.3262 59.1692L35.8773 59.0219L35.8188 58.5998L36.3262 59.1692L36.6482 58.482L36.7068 58.8943L36.3262 59.1692ZM37.2923 61.3683L36.9215 60.3571L37.6436 60.8971L37.7021 61.3192L37.2923 61.3781V61.3683ZM38.4535 63.5282L38.4243 63.322L38.5901 63.0766L39.0683 63.43L38.4535 63.5183V63.5282ZM38.5609 55.6349L38.0534 55.0654L38.434 54.7906L39.3806 55.5072L39.4099 55.7134L38.5511 55.6349H38.5609ZM39.2537 51.698L39.5757 51.0206L40.3369 50.4807L40.5125 50.2352L40.8736 51.2464L39.6928 51.8453L39.244 51.698H39.2537ZM41.5567 61.5745L41.7031 61.1229L41.947 61.3094L41.5665 61.5745H41.5567ZM41.5372 57.1173L41.4981 55.4189L41.1761 54.6138L40.2783 54.3193L40.8151 53.6026L41.7323 54.1033L41.8006 54.5157L42.0739 54.8986L41.9861 55.7625L43.2059 56.8621L41.5469 57.1075L41.5372 57.1173ZM44.0548 52.6896L44.1134 53.1019L43.2546 53.0136L42.7179 52.238L42.8643 51.7962L43.6938 51.6686L44.6696 51.0992L45.1185 51.2464L44.0646 52.6896H44.0548ZM45.3137 49.7345L44.9819 48.9197L46.0553 48.9786L46.1138 49.3909L45.3039 49.7247L45.3137 49.7345ZM47.0214 52.67L46.9628 52.2478L47.3141 51.7766L47.9387 51.6784L48.3778 51.8257L48.934 51.3152L49.8025 51.4035L50.5051 51.9337L50.1831 52.6307L49.3829 52.9645L47.402 52.4049L47.0214 52.6798V52.67ZM48.3973 54.8102L47.7728 54.8986L48.3095 54.1917L48.7584 54.3291L48.4071 54.8102H48.3973ZM52.4178 54.8495L50.2124 58.5801L50.0855 57.7456L48.7681 56.0177L49.6561 54.82L49.9489 53.9266L50.6612 54.4568L49.8708 56.2828L50.1441 56.6657L50.5246 56.3908L52.2226 53.583L52.0957 52.7485L53.3155 52.3558L53.823 52.9154L52.408 54.8396L52.4178 54.8495ZM53.8717 54.6335L54.2523 54.3586L54.7695 54.928L53.8717 54.6335ZM55.882 53.907L55.4331 53.7597L54.8671 52.778L55.0037 52.3264L55.4526 52.4834L55.9893 53.2492L55.8527 53.7008L55.882 53.907ZM57.3555 56.6755L57.0822 56.2828L57.0237 55.8705L57.8141 55.5367L58.2142 56.7541L57.3555 56.6755ZM57.8434 54.2506L57.3067 53.475L58.224 53.9757L58.2825 54.388L57.8336 54.2408L57.8434 54.2506ZM58.6046 53.7106L58.9559 53.2296L59.6097 53.3474L59.7365 54.1819L59.4926 54.0052L58.6046 53.7106ZM59.9512 55.6349L59.5316 55.7036L59.2291 55.1047L59.3755 54.6531L60.0878 55.1931L59.9415 55.6349H59.9512ZM60.5367 52.3656L59.5316 52.7191L57.3945 52.6111L56.5065 52.3165L55.6673 50.9519L58.2728 51.4133L59.2193 50.6279L60.0781 50.7163L59.1803 48.9295L60.4196 48.743L60.7904 51.2464L61.4345 49.8622L62.0005 49.3516L62.2932 48.4583L62.9763 48.7822L63.8253 47.3783L64.6255 47.0445L65.0744 47.2016L65.6111 46.4751L65.7867 46.3868L64.967 49.7051L64.3132 49.224L62.7519 50.0978L60.5465 52.3558L60.5367 52.3656ZM61.2393 57.1468L60.9661 56.7639L61.0539 55.8999L61.8443 55.5661L62.2932 55.7232L62.2152 56.5872L61.6492 57.0977L61.2296 57.1566L61.2393 57.1468ZM52.9447 97.1827L53.0911 96.7311L53.3448 96.9274L53.2277 97.3987L52.9349 97.1827H52.9447ZM51.3638 95.0719L51.4224 95.4842L51.0418 95.7493L50.9833 95.337L51.3638 95.0719ZM51.2272 97.006L51.4614 97.1729L51.7347 97.5557L50.632 97.2907L51.2272 96.9961V97.006ZM51.9201 113.264L51.559 112.969L52.0665 112.665L51.9201 113.274V113.264ZM60.3415 110.593L60.039 110.083L60.8002 110.485L60.3415 110.593ZM75.145 101.335V101.286L75.1645 101.316L75.145 101.335ZM77.1454 94.4632L77.2723 94.0803L77.4772 94.1491L77.1454 94.4632ZM77.5163 92.3328V92.1856L77.6334 92.215L77.5163 92.3328ZM78.9215 95.2192L78.5116 95.2781L78.5897 94.4141L78.9995 94.3552L78.9215 95.2192ZM79.263 87.5026L78.6873 86.9234L78.8336 86.3343L79.3118 86.4227L79.6436 87.2179L79.263 87.4928V87.5026ZM80.3852 90.7424L79.9266 90.5853L80.073 90.1435L80.5218 90.2908L80.3852 90.7424ZM82.5516 86.7957L83.1956 86.9135L83.059 87.3651L82.6101 87.2081L82.4052 87.2473L82.5516 86.7957ZM83.303 90.5166L82.9224 90.7915L82.2393 90.4675L81.9368 89.8686L82.7272 89.5348L83.4396 90.0748L83.2932 90.5264L83.303 90.5166ZM84.757 88.8083L84.7765 87.532L85.1961 87.4731L85.1083 88.3371L85.2059 88.9654L84.757 88.8083ZM87.138 92.0776L86.6599 91.7241L87.0112 91.2431L87.4503 91.3805L87.5186 91.8027L87.138 92.0776ZM87.0112 89.7508L86.6208 90.0159L85.9182 89.4857L86.1817 88.3763L87.6942 88.5727L87.0209 89.741L87.0112 89.7508ZM95.3741 86.1576L95.1692 86.187L95.1106 85.7747L95.3741 86.1576ZM94.6227 89.6821L95.0716 89.8293L94.8959 90.0748L94.5153 90.3399L94.6324 89.6821H94.6227ZM93.8908 84.6751L93.9494 85.0973L93.1199 85.2249L93.8908 84.6849V84.6751ZM88.9433 84.1352L89.0799 83.6836L89.5288 83.8308L89.6459 84.6653L88.9433 84.1352ZM92.6417 90.6147L92.1928 90.4773L92.5149 89.7901L93.7347 89.3876L93.5883 89.8392L92.6417 90.6246V90.6147ZM95.0618 94.0901L94.6812 94.365L94.3592 93.56L93.4322 93.0593L93.0516 93.3244L94.6715 91.3805L95.5302 91.4591L95.901 92.4703L95.0813 94.0901H95.0618ZM96.0669 82.2109L96.4573 81.9459L96.8769 81.887L96.8183 82.9669L95.9596 82.8785L96.0767 82.2109H96.0669ZM97.1306 86.5306L97.5404 86.4717L97.3941 86.9234L96.5939 87.2571L97.1306 86.5405V86.5306ZM97.0135 88.6905L96.7793 88.5138L97.8527 88.5727L98.9749 89.0341L98.6139 89.525L97.277 89.0832L97.0037 88.7003L97.0135 88.6905ZM98.0869 93.0004L98.4382 92.5095L98.7017 92.9022L98.0869 92.9906V93.0004ZM98.8968 91.3903L98.0771 91.5081L97.9796 90.8798L99.4043 90.4478L98.9066 91.3805L98.8968 91.3903ZM99.9117 88.2585L99.7068 88.288L99.8434 87.8462L100.292 87.9836L99.902 88.2585H99.9117ZM99.7946 85.9318L98.8383 85.2151L98.9847 84.7635L99.6092 84.6751L100.351 85.4115L100.409 85.8336L99.7849 85.922L99.7946 85.9318ZM101.541 97.8208L101.21 97.006L101.697 97.3594L101.551 97.811L101.541 97.8208ZM103.717 89.6035L103.513 89.633L103.864 89.1519L103.727 89.6035H103.717ZM103.474 87.9346L103.942 88.288L101.317 89.1127L100.663 88.9949L101.61 88.2094L102.82 86.3343L102.664 85.2936L104.059 86.1576L103.327 86.9037L103.483 87.9444L103.474 87.9346ZM104.518 83.5167L103.903 83.605L102.644 82.2993H104.127L105.015 82.5938L105.045 82.8L104.508 83.5167H104.518ZM106.011 84.9991L105.825 85.2347L105.318 84.6653L105.191 83.8308L106.05 83.9192L106.001 84.9991H106.011ZM105.933 80.11L105.542 80.3751L105.211 79.57L105.806 79.2657L106.255 79.4129L105.933 80.1002V80.11ZM108.704 84.5966L108.323 84.8617L108.021 84.2628L108.167 83.8112L108.85 84.1352L108.704 84.5868V84.5966ZM112.627 79.5406L112.002 79.6387L111.905 79.0104L112.529 78.9221L112.793 79.3049L112.627 79.5504V79.5406ZM115.447 77.1942L114.735 76.664L114.881 76.2124L115.291 76.1535L115.613 76.9487L115.447 77.1942Z" fill="white"/>
<path d="M73.5738 75.2403L73.7299 74.6218L73.4176 74.1113L72.7053 74.3666L72.3052 75.1422L73.1151 75.3483L73.5738 75.2403Z" fill="white"/>
</g>
<defs>
<clipPath id="clip0_7564_26967">
<rect width="105" height="99" fill="white" transform="translate(18 22)"/>
</clipPath>
</defs>
</svg>
