<svg width="68" height="28" viewBox="0 0 68 28" fill="none" xmlns="http://www.w3.org/2000/svg">
<path d="M67.8518 7.3148L68 6.81492L67.8518 3.53718L66.9807 1.51232L65.9614 0.752994L63.0518 0.24678L61.7406 1.0061L61.0132 0.24678H57.0843L56.7924 0.506215L53.2945 0.24678L52.7153 0.506215L51.696 2.27164H51.2559V1.0061L48.7818 0.24678L46.164 0.506215L45.8677 0.24678H43.5462L42.3788 0.752994L41.9387 1.25288L41.3595 0.24678H40.0483L39.9002 0.506215H35.3875L34.3682 0L33.789 0.506215L33.0615 0.24678L31.8941 0.752994L30.7311 0.24678H29.5681L29.2718 0.506215H27.0895L26.9414 0.24678H24.6109L22.4287 0.752994L21.5576 0.24678H18.3516L18.0597 0.506215H15.15L14.8582 0.24678H7.87137L4.52166 0.752994L4.22979 0.506215L2.33492 1.0061L1.46381 0.506215L0 4.03706L0.291865 7.56791L0.148178 13.1173L0 13.6172L0.291865 20.179L0 21.4445V23.9629L0.727417 26.2346L2.03856 27.2407L3.78526 28L7.42684 27.5001L8.29794 27.2407L9.02536 27.7532L10.9202 28L13.1025 27.7532L14.9929 26.9939L15.4329 27.4938L16.5959 27.7532L17.4715 27.2407L20.2419 27.5001L20.5338 27.7595H23.7353L24.0272 27.5001H33.4926L33.7845 27.7595H38.7327L39.0246 27.5001H42.9535L43.8291 27.7595L44.121 27.5001L46.0114 28L46.4514 27.5001H48.0544L48.3463 27.7595H50.3848L50.6767 27.5001H51.9879L52.2797 27.7595H53.8827L54.6101 27.247L54.902 27.7595H57.8162L58.8354 27.247L59.9984 27.7595H61.6014L61.8933 27.5001H63.3526L63.6445 27.7595H65.683L66.9942 26.7408L67.7216 25.2285L68.0135 23.4631V17.4011L67.8653 16.9012V7.32113L67.8518 7.3148ZM6.69942 17.1543V16.395L6.99128 16.9012L6.69942 17.1543ZM11.3558 12.6111V13.1173L11.0639 13.6172L10.6239 13.3704L11.0639 12.6111H11.3558ZM9.75726 8.57401L10.341 8.82079L10.6329 10.5862L9.76175 10.3394L9.61358 8.82079L9.76175 8.57401H9.75726ZM10.0491 12.6111L9.75726 11.8518L10.0491 12.1049V12.6047V12.6111ZM10.7765 17.4011L10.4847 17.1543L11.0639 16.395L11.7913 16.6545L12.0832 17.1543L11.7913 16.9012L10.7721 17.4011H10.7765ZM12.0877 22.9568V22.1975L12.3796 22.4569L12.5277 22.9568H12.0877ZM13.2507 9.32701L12.9588 9.08023L13.107 8.58034L13.3988 8.82712L13.2507 9.33333V9.32701ZM16.4567 17.1543L16.3085 17.4011L16.0166 16.6545L16.3085 15.6484H16.6004L16.7485 16.1546L16.4567 17.1607V17.1543ZM17.3278 11.605L17.1841 12.1049H16.8922V11.0861H17.3233V11.5986L17.3278 11.605ZM17.7678 16.3887L18.2079 16.1419L18.3516 16.3887L18.4997 16.8949L17.7723 16.3887H17.7678ZM18.4952 14.3765L18.2034 14.6233V14.1234L18.4952 13.8766V14.3765ZM19.8064 17.4011L19.3664 16.6545L19.5145 16.1482L19.9456 16.8949L19.8019 17.3948L19.8064 17.4011ZM21.2567 14.3765H20.9649L20.8212 13.3704L21.113 12.8579L21.4049 13.6172L21.2567 14.3765ZM21.5531 12.358L21.2567 12.1112L21.5531 11.3519H21.9886L22.1368 11.8581L21.5576 12.358H21.5531ZM21.9886 10.5925L21.845 9.83955H22.276L22.4242 10.5925H21.9842H21.9886ZM22.8642 12.8579L23.0079 12.358L23.1561 12.6111L22.8642 12.8579ZM28.3962 2.0122V2.51842L28.1043 3.02463L27.9562 2.77785L27.8125 2.27797L28.3917 2.01853L28.3962 2.0122ZM24.1754 17.6542L24.3191 17.148L24.4672 17.3948L24.1754 17.6542ZM24.3146 13.6172L24.0227 13.3704L24.3146 12.6111L24.6064 12.8579L24.3146 13.6172ZM25.1947 11.3455L25.0465 11.605L24.4672 10.5862L24.7591 10.3394L25.1992 10.8456V11.3455H25.1947ZM26.3576 25.4689H26.2139L26.3576 25.2221V25.4689ZM26.645 17.4011L26.0658 16.395L26.2139 15.3889L26.645 15.8888L26.7932 16.8949L26.645 17.3948V17.4011ZM26.9369 13.8766L26.645 14.8827H26.3531L26.5013 13.3767L26.3531 11.8581H26.645L26.9369 12.8642V13.8829V13.8766ZM27.3769 11.0924L27.2287 11.3519L26.9369 10.852L27.3769 10.5925V11.0924ZM27.3769 8.82079V8.3209L28.1043 8.58034V9.08023L27.8125 9.32701L27.3724 8.82079H27.3769ZM28.248 17.9137L28.1043 17.4011L28.6836 17.1543L29.1236 18.9198L28.2435 17.9137H28.248ZM29.2673 16.6481L28.6881 16.3887V15.3826L28.8362 15.1232L29.2673 16.1419V16.6481ZM30.8748 18.9198L30.1429 18.6603V17.6542L31.1622 17.9137L31.454 18.6603L30.8748 18.9198ZM31.8851 10.5925L31.7414 10.0863L32.0333 10.3458L31.8851 10.5925ZM32.7652 15.1295L32.9089 14.6296V14.8827L33.0571 15.642L32.7652 15.1295ZM34.3637 9.83955L35.0911 9.58011L35.2348 10.08L34.6556 11.0861H34.3637V9.83322V9.83955ZM33.2007 6.54915H33.6318L34.0718 7.30847V7.81469L34.22 8.3209L33.6318 8.07412L33.2007 6.55548V6.54915ZM34.22 25.4689L33.9237 25.9815H33.6318L33.4881 24.9627L33.9192 24.7159L34.2155 24.9627V25.4626L34.22 25.4689ZM35.5312 18.6603L35.2348 18.1605H35.5312V18.6603ZM36.1149 17.9137L35.823 17.6542L35.6749 17.3948L36.2586 17.148L36.5505 17.3948L36.1149 17.9073V17.9137ZM36.2541 15.8888L35.2348 15.642L34.5119 14.3765L33.9237 13.8766V11.8518L35.2348 12.6111L35.383 14.1234L36.8423 15.1295L36.2541 15.8888ZM36.8423 13.8766L36.4023 14.1234L35.823 13.6172L35.6749 13.1173V12.6111H36.4023L36.8423 13.3704V13.8766ZM37.4216 18.9198H37.1297L37.2734 17.9137H37.5608L37.4171 18.9198H37.4216ZM38.0053 8.82079L38.1535 8.3209L38.5845 8.58034L38.7327 9.58644L38.4408 9.84588L38.0008 8.82712L38.0053 8.82079ZM38.8809 13.8766L38.5845 13.6172L38.7327 13.1173L39.0246 13.3767L38.8809 13.8829V13.8766ZM38.5845 6.54915V6.04927L39.1727 6.30237L39.3164 7.30847L38.589 6.54915H38.5845ZM40.915 14.1234L40.6231 14.3828L40.1875 13.8829L40.0394 13.1236L40.6186 12.8642L41.0586 13.6235L40.9105 14.1297L40.915 14.1234ZM41.0631 10.3458L40.7713 10.0863H40.6231L40.7713 9.58644L41.2023 9.84588L41.0586 10.3521L41.0631 10.3458ZM42.3743 11.8518V12.6111L42.0824 12.358L42.2261 10.8456H42.5225L42.3743 11.8518ZM43.6809 16.3887L43.3891 16.6481L43.0972 16.1419L43.3891 15.6357L43.6809 15.8825V16.3824V16.3887ZM43.5417 13.8766L43.2454 14.1234L42.8143 13.3704L43.1062 12.1049L44.1255 12.6047L43.5462 13.8703L43.5417 13.8766ZM45.8632 8.3209L45.4321 7.56791L45.5758 7.05537L45.8677 7.3148V8.3209H45.8632ZM49.0737 15.3889L48.9255 15.642L48.6337 15.8888L48.7818 15.1295L49.0737 15.3889ZM48.7818 9.08023V9.58644H48.2026L48.7818 9.08023ZM47.3225 14.8827L48.1981 14.6296L48.0499 15.1295L47.3225 15.8888L47.0306 15.642L47.3225 14.8827ZM48.6337 20.4258L48.3418 20.6789L48.1981 19.6728L47.6099 18.9134L47.318 19.1602L48.6292 17.148L49.2084 17.3948L49.3566 18.6603L48.6292 20.4258H48.6337ZM49.5092 11.0924V10.5925L49.6529 11.0924H49.5092ZM50.524 6.54915L50.8204 6.30237H51.1123L50.9641 7.56791L50.3848 7.30847L50.5285 6.54915H50.524ZM50.8204 11.8518H51.1123L50.9641 12.3516L50.3848 12.6047L50.8249 11.8454L50.8204 11.8518ZM50.524 14.3765L50.3804 14.1171L51.1078 14.3765L51.8352 15.1232L51.5388 15.6357L50.6677 14.8764L50.5195 14.3765H50.524ZM50.8204 19.6791L51.1123 19.1666L51.2559 19.6791H50.8204ZM51.5433 17.9137H50.9641V17.1543L51.9834 16.9012L51.5433 17.92V17.9137ZM52.1315 10.5925L52.2752 10.0863H52.7153L53.1553 11.0924V11.605H52.7153L52.136 10.5862L52.1315 10.5925ZM52.7108 25.9878L52.5626 24.969L52.859 25.4689L52.7108 25.9815V25.9878ZM52.5626 14.3765H52.4189L52.5626 13.8766L52.859 14.1234L52.5626 14.3828V14.3765ZM55.0412 16.6481H54.893L55.1849 16.1419L55.0412 16.6481ZM55.3331 15.1295L53.4427 15.642L53.0026 15.3889L53.7301 14.6296L54.7493 12.6174V11.3519L55.6204 12.6174L55.0412 13.3767V14.6296L55.3331 15.1295ZM55.7686 9.58011L55.0412 7.81469L56.0605 8.07412L56.6397 8.57401V8.82079L56.1997 9.58011H55.7686ZM57.0798 11.605L56.9316 11.8518L56.6397 11.0924V10.0863L57.219 10.3458L57.0753 11.6113L57.0798 11.605ZM57.5198 5.80249L57.2235 6.04927L57.0798 5.04316L57.5198 4.78373L57.8117 5.04316L57.5198 5.80249ZM58.9702 11.605L58.6783 11.8518L58.5301 11.0924L58.6783 10.5925L59.1183 11.0924L58.9702 11.605ZM62.1807 6.3087H61.7406V5.54938H62.1807L62.3244 6.05559L62.1807 6.3087ZM64.3584 4.03706L63.9184 3.27774L64.0666 2.77153H64.3584L64.5021 3.77763L64.3584 4.03706Z" fill="#CBB8D9"/>
</svg>