<svg xmlns="http://www.w3.org/2000/svg" width="53" height="20" fill="none">
  <path fill="#61a534" d="m52.6 10 .2 3.6-.1 1-.5 1-1 .6-1.6.1-.2-.1h-1.1l-.2.2-1.2.1-1-.2-.7.3-2.2.2-.3-.3-.5.3-1.2.1-.2-.1h-1l-.3.2-1.5.1h-1.5l-.3.3-1.4-.2-.2.2-.7-.1-3 .2-.2.2-3.8.3-.2-.2-7.3.6-.2.1-2.4.2-.2-.1h-2.2l-.6.3h-1l-.3-.3-1.4.5-1.6.3H8l-.6-.3-.6.2-2.8.5-1.3-.4-1-.5-.7-1.2-.1-1.5.2-.8-.5-3.7V8L.2 6l1-2.1.6.2 1.4-.4.3.1L6 3.5l5.3-.4.3.1 2.2-.1.2-.2 2.4-.2.7.3 1.6-.4 1.8-.2.1.2 1.7-.2.2-.1h.9l.9.1.9-.3h.5l.4-.2.8.2 3.5-.3v-.1h1l.6.5.3-.3.9-.4 1.7-.1.3.1 2-.3 1.8.3.1.8h.3l.7-1.1.5-.2h2.7l.2-.2 3-.3.6.4 1-.5 2.2.2.8.3.7 1.2L52 4v.3l.3 5.5.2.3"/>
</svg>
