<svg width="54" height="20" viewBox="0 0 54 20" fill="none" xmlns="http://www.w3.org/2000/svg">
<path d="M52.5692 10.0687L52.8194 13.5816L52.6674 14.6219L52.1669 15.5304L51.2124 16.186L49.654 16.2994L49.4189 16.1735L48.3104 16.2542L48.0956 16.4128L46.8746 16.5016L45.9697 16.2673L45.2198 16.6221L43.0028 16.7834L42.7566 16.5011L42.2155 16.8407L40.9945 16.9295L40.7595 16.8037L39.7634 16.8761L39.5486 17.0347L38.0063 17.147L37.7712 17.0211L36.5502 17.1099L36.2331 17.4189L34.783 17.2385L34.5682 17.3971L33.8833 17.304L30.8951 17.5214L30.6803 17.68L26.9049 17.9548L26.6698 17.8289L19.4563 18.3538L19.2415 18.5124L16.7995 18.6901L16.5644 18.5642L14.4497 18.5752L13.7962 18.9229L12.9025 18.845L12.5448 18.5851L11.1464 19.13L9.48566 19.3938L8.02962 19.3568L7.44604 19.0991L6.79747 19.2892L4.05442 19.7748L2.68956 19.4309L1.65195 18.9203L0.99646 17.6527L0.892126 16.1879L1.06437 15.4319L0.568992 11.651L0.661193 11.3584L0.544724 8.13596L0.173938 6.10433L1.13661 3.97567L1.81658 4.22641L3.24122 3.82253L3.47627 3.94839L6.01047 3.47806L11.3282 3.09111L11.5633 3.21697L13.7804 3.05564L13.9952 2.89705L16.4372 2.71936L17.1161 2.95587L18.7506 2.55101L20.5179 2.42242L20.6404 2.55646L22.2952 2.43605L22.51 2.27746L23.3936 2.21316L24.2975 2.43331L25.1609 2.08457L25.7333 2.18587L26.1468 1.86986L26.9543 2.09703L30.3924 1.84685L30.4947 1.69645L31.4908 1.62396L31.9821 2.17434L32.2983 1.85113L33.1616 1.50238L34.9288 1.37379L35.1639 1.49965L37.1459 1.21246L39.057 1.51657L39.1097 2.25613L39.4471 2.23158L40.1453 1.15147L40.585 0.97651L43.262 0.924672L43.4768 0.766082L46.4651 0.548641L47.0588 0.948611L48.0234 0.435244L50.2608 0.558358L51.0633 0.943134L51.8051 2.06142L52.0533 3.95901L51.9611 4.25164L52.3561 9.79829L52.4899 10.0888L52.5692 10.0687Z" fill="#FF003D"/>
</svg>
