<svg width="81" height="73" viewBox="0 0 81 73" fill="none" xmlns="http://www.w3.org/2000/svg">
<path d="M69.9148 4.55887L70.0236 4.16188L69.5881 1.74927L68.519 0.391417L67.4073 0L64.3776 0.118284L63.0977 0.905983L62.2855 0.464935L58.2535 1.13304L57.9765 1.37562L54.3644 1.77748L53.7924 2.06893L52.8991 3.55528L52.4475 3.63011L52.338 2.68887L49.7334 2.54484L47.0693 3.18295L46.7428 3.04039L44.3605 3.43514L43.2062 4.01016L42.7978 4.45677L42.1164 3.80699L40.7708 4.02994L40.6412 4.2481L36.0102 5.01546L34.9204 4.81229L34.3697 5.28729L33.6008 5.21803L32.4465 5.79305L31.2093 5.61431L30.0158 5.81207L29.7341 6.05542L27.4946 6.4265L27.3201 6.25874L24.9286 6.65503L22.7329 7.40261L21.7951 7.17424L18.505 7.71941L18.2279 7.962L15.242 8.45678L14.92 8.31345L7.74998 9.50154L4.3562 10.4476L4.03534 10.3137L2.134 11.0077L1.19682 10.7841L0 13.659L0.604904 16.2355L0.937417 20.3872L0.828589 20.7842L1.69564 25.6149L1.50558 26.6058L1.7234 28.4788L2.66637 30.0447L4.09892 30.57L5.9571 30.8377L9.65095 29.8467L10.5225 29.5056L11.3133 29.7631L13.2792 29.6244L15.4973 29.0698L17.3716 28.1836L17.8664 28.4806L19.0823 28.4758L19.9366 27.9457L22.8021 27.6675L23.1241 27.8108L26.4096 27.2664L26.6867 27.0239L36.4003 25.4143L36.7223 25.5576L41.8003 24.7162L42.0774 24.4736L46.1094 23.8055L47.0303 23.8496L47.3074 23.607L49.2906 23.6573L49.699 23.2107L51.344 22.9381L51.666 23.0814L53.758 22.7348L54.0351 22.4922L55.3806 22.2692L55.7026 22.4126L57.3476 22.14L58.0498 21.6351L58.3937 21.9666L61.3842 21.4711L62.3859 20.9166L63.6237 21.1L65.2688 20.8274L65.5458 20.5848L67.0434 20.3367L67.3654 20.48L69.4574 20.1334L70.7149 19.1527L71.3305 17.9042L71.4774 16.5416L70.9531 12.033L70.7578 11.6865L69.9292 4.56128L69.9148 4.55887ZM8.00964 22.2758L7.94397 21.711L8.28727 22.0379L8.00964 22.2758ZM12.3952 18.1049L12.439 18.4814L12.1827 18.9028L11.7097 18.7941L12.0957 18.1546L12.3952 18.1049ZM10.4056 15.3742L11.0259 15.4585L11.4782 16.7219L10.5629 16.6865L10.2795 15.5822L10.4102 15.3734L10.4056 15.3742ZM11.0542 18.3271L10.6891 17.812L11.0105 17.9506L11.0542 18.3271ZM12.215 21.766L11.8942 21.6321L12.4229 20.9689L13.1919 21.0381L13.5346 21.3603L13.2132 21.2217L12.2104 21.7668L12.215 21.766ZM14.0411 25.6751L13.9754 25.1103L14.2974 25.2537L14.4927 25.6003L14.0411 25.6751ZM14.0557 15.3402L13.7348 15.2063L13.8437 14.8093L14.1645 14.9432L14.0563 15.3449L14.0557 15.3402ZM18.0228 20.6166L17.8921 20.8253L17.528 20.3196L17.7405 19.5217L18.04 19.4721L18.2358 19.8234L18.0233 20.6213L18.0228 20.6166ZM18.4368 16.3411L18.3326 16.7373L18.033 16.787L17.9449 16.0293L18.3873 15.956L18.4316 16.3372L18.4368 16.3411ZM19.3021 19.8242L19.7324 19.5658L19.9011 19.7249L20.097 20.0762L19.3067 19.8234L19.3021 19.8242ZM19.8746 18.2039L19.5964 18.4371L19.5532 18.0653L19.8313 17.8321L19.8746 18.2039ZM21.4817 20.2305L20.9655 19.75L21.0738 19.3483L21.5808 19.8303L21.4765 20.2266L21.4817 20.2305ZM22.7085 17.7343L22.409 17.784L22.1745 17.0601L22.4297 16.6293L22.7949 17.1444L22.7085 17.7343ZM22.838 16.1827L22.5126 16.0495L22.751 15.4344L23.198 15.3603L23.3938 15.7116L22.8426 16.1819L22.838 16.1827ZM23.1323 14.7956L22.9197 14.26L23.3621 14.1867L23.5793 14.7215L23.1277 14.7963L23.1323 14.7956ZM24.2268 16.3315L24.331 15.9353L24.505 16.0983L24.2268 16.3315ZM28.9658 7.32438L29.0096 7.70088L28.7538 8.127L28.5804 7.96866L28.3897 7.6213L28.9617 7.32985L28.9658 7.32438ZM25.9872 19.6758L26.0908 19.2749L26.2643 19.4332L25.9872 19.6758ZM25.7808 16.6496L25.46 16.5157L25.6938 15.9013L26.0147 16.0352L25.7808 16.6496ZM26.4875 14.8104L26.3579 15.0286L25.6754 14.3694L25.9535 14.1362L26.4489 14.4379L26.4921 14.8097L26.4875 14.8104ZM28.9025 25.1169L28.7551 25.1413L28.8812 24.9333L28.9025 25.1169ZM28.4997 19.0676L27.8182 18.4178L27.8833 17.6444L28.3689 17.9428L28.608 18.6659L28.4991 19.0629L28.4997 19.0676ZM28.4944 16.3966L28.2819 17.1946L27.9823 17.2442L28.0041 16.0989L27.7207 14.9946L28.0203 14.945L28.4068 15.6437L28.4949 16.4013L28.4944 16.3966ZM28.7051 14.2511L28.5755 14.4692L28.2328 14.1471L28.6619 13.8793L28.7051 14.2511ZM28.5087 12.5616L28.4654 12.1898L29.2344 12.259L29.2776 12.6308L28.9994 12.864L28.504 12.5623L28.5087 12.5616ZM30.1891 19.1762L29.9973 18.8195L30.5704 18.5374L31.1746 19.7756L30.1844 19.177L30.1891 19.1762ZM31.1256 18.0617L30.5087 17.9672L30.4217 17.2189L30.5513 17.0008L31.0818 17.6852L31.1256 18.0617ZM32.9717 19.4778L32.1982 19.4093L32.1112 18.6611L33.1796 18.6807L33.5437 19.1864L32.9717 19.4778ZM33.2883 13.1127L33.0971 12.7606L33.419 12.904L33.2883 13.1127ZM34.5839 16.3374L34.6881 15.9412L34.71 16.1294L34.9277 16.669L34.5839 16.3374ZM35.7668 12.1312L36.4909 11.8145L36.6815 12.1619L36.1741 13.0087L35.8746 13.0583L35.7663 12.1265L35.7668 12.1312ZM34.2887 9.88172L34.7311 9.80842L35.2484 10.2983L35.2921 10.6748L35.488 11.0261L34.863 10.9426L34.2893 9.88643L34.2887 9.88172ZM36.9711 23.7799L36.7113 24.2115L36.4118 24.2611L36.1763 23.5279L36.5973 23.271L36.9227 23.4042L36.966 23.776L36.9711 23.7799ZM37.7278 18.4931L37.3804 18.1717L37.6846 18.1213L37.7278 18.4931ZM38.2622 17.8385L37.9403 17.6952L37.7658 17.5274L38.3435 17.2446L38.6643 17.3785L38.2617 17.8338L38.2622 17.8385ZM38.23 16.3088L37.1626 16.2986L36.3113 15.4803L35.6644 15.2086L35.4893 13.7026L36.9005 14.0444L37.1833 15.1439L38.7679 15.6441L38.23 16.3088ZM38.6596 14.7123L38.2293 14.9706L37.5911 14.6926L37.3958 14.346L37.352 13.9695L38.0985 13.8458L38.6158 14.3358L38.6596 14.7123ZM39.6902 18.3646L39.3907 18.4142L39.4511 17.6415L39.746 17.5926L39.6856 18.3654L39.6902 18.3646ZM39.4158 10.7542L39.5246 10.3573L39.9894 10.4769L40.2285 11.2L39.9514 11.4426L39.4117 10.7597L39.4158 10.7542ZM40.7516 14.3656L40.425 14.223L40.5339 13.8261L40.8558 13.9694L40.7521 14.3703L40.7516 14.3656ZM39.8137 8.96623L39.7705 8.59444L40.396 8.68266L40.6305 9.40651L39.8183 8.96546L39.8137 8.96623ZM42.8604 14.2033L42.5833 14.4458L42.0931 14.1481L41.8753 13.6086L42.4473 13.3171L42.9646 13.807L42.8563 14.2087L42.8604 14.2033ZM42.6857 11.3685L42.3637 11.2251L42.2117 11.2503L42.3205 10.8534L42.7853 10.973L42.6816 11.3739L42.6857 11.3685ZM44.1615 12.2656L44.2272 12.8303L43.9058 12.6917L43.9224 11.5425L44.2265 11.4921L44.1615 12.2656ZM45.8948 15.4177L45.6177 15.6603L45.2744 15.3334L45.5302 14.9073L45.851 15.0412L45.8948 15.4177ZM45.5347 13.573L45.2519 13.807L44.7444 13.3202L44.9345 12.3294L46.0237 12.5278L45.5388 13.5676L45.5347 13.573ZM47.4365 9.04625L46.929 8.55951L47.0321 8.15388L47.3541 8.2972L47.4411 9.04548L47.4365 9.04625ZM51.3425 13.7571L51.2124 13.9706L50.9342 14.2037L51.0206 13.6138L51.3425 13.7571ZM50.4974 9.11469L50.5412 9.49118L49.9467 9.58968L50.4974 9.11469ZM49.5016 13.6784L50.3783 13.3413L50.2695 13.7383L49.5887 14.4267L49.2678 14.2928L49.5016 13.6784ZM51.3266 17.5781L51.049 17.816L50.8145 17.0921L50.1452 16.6274L49.867 16.8606L51.0385 15.141L51.6543 15.2261L51.9158 16.1421L51.322 17.5788L51.3266 17.5781ZM51.4179 10.4876L51.3747 10.1158L51.5654 10.4631L51.4179 10.4876ZM52.0664 6.93595L52.3491 6.70202L52.6487 6.65239L52.6061 7.61882L51.9892 7.52436L52.071 6.93519L52.0664 6.93595ZM52.8291 10.8293L53.1286 10.7797L53.0198 11.1767L52.4473 11.4634L52.8332 10.8239L52.8291 10.8293ZM52.7434 12.7575L52.5735 12.589L53.3424 12.6582L54.1535 13.0899L53.8937 13.5215L52.934 13.1049L52.7388 12.7583L52.7434 12.7575ZM53.5061 16.6509L53.7613 16.2201L53.9531 16.5768L53.5061 16.6509ZM54.0953 15.2149L53.5009 15.3134L53.4352 14.7487L54.4593 14.3871L54.0958 15.2197L54.0953 15.2149ZM54.0657 9.66986L54.1694 9.26893L54.621 9.1941L55.1596 9.86756L55.2039 10.2488L54.7523 10.3236L54.0698 9.66439L54.0657 9.66986ZM55.9917 21.0215L55.7515 20.289L56.0989 20.6104L55.9912 21.0168L55.9917 21.0215ZM54.8354 12.4109L54.6879 12.4353L54.7921 12.0391L55.1176 12.1722L54.8359 12.4156L54.8354 12.4109ZM57.5755 13.6789L57.4234 13.7041L57.6791 13.278L57.5755 13.6789ZM57.7436 12.4998L55.848 13.2024L55.3745 13.089L56.0554 12.4006L56.9273 10.7307L56.8179 9.78945L57.8213 10.5826L57.2925 11.2458L57.4009 12.1776L57.7436 12.4998ZM57.7106 8.29839L56.8115 7.10906L57.8799 7.12869L58.5176 7.40198L58.5389 7.58552L58.153 8.22509L57.7106 8.29839ZM59.2313 9.58142L59.1006 9.79016L58.7354 9.27504L58.6484 8.52676L59.2652 8.62121L59.2272 9.58689L59.2313 9.58142ZM59.181 5.19101L58.8983 5.42495L58.6638 4.7011L59.0929 4.43331L59.4149 4.57664L59.181 5.19101ZM61.1713 9.25996L60.8931 9.49314L60.6754 8.95359L60.7842 8.5566L61.279 8.85356L61.1713 9.25996ZM64.0079 4.77494L63.5563 4.84977L63.4907 4.28503L63.9422 4.2102L64.1335 4.56226L64.0079 4.77494ZM66.0463 2.7151L65.5291 2.22518L65.6373 1.82349L65.9368 1.77386L66.1713 2.49771L66.0463 2.7151Z" fill="white"/>
<path d="M73.4374 40.7211L73.5463 40.3242L73.1107 37.9115L72.0416 36.5537L70.9299 36.1623L67.9002 36.2806L66.6203 37.0683L65.8082 36.6272L61.7762 37.2953L61.4991 37.5379L57.887 37.9398L57.315 38.2312L56.4217 39.7176L55.9701 39.7924L55.8607 38.8512L53.256 38.7071L50.592 39.3452L50.2654 39.2027L47.8831 39.5974L46.7288 40.1724L46.3204 40.6191L45.639 39.9693L44.2935 40.1922L44.1638 40.4104L39.5328 41.1777L38.443 40.9746L37.8924 41.4496L37.1234 41.3803L35.9691 41.9553L34.7319 41.7766L33.5384 41.9743L33.2567 42.2177L31.0172 42.5888L30.8427 42.421L28.4512 42.8173L26.2555 43.5649L25.3178 43.3365L22.0277 43.8817L21.7506 44.1243L18.7646 44.6191L18.4426 44.4757L11.2726 45.6638L7.87883 46.6099L7.55797 46.476L5.65663 47.17L4.71945 46.9464L3.52263 49.8213L4.12753 52.3978L4.46004 56.5495L4.35122 56.9465L5.21827 61.7772L5.02821 62.7681L5.24603 64.6411L6.189 66.207L7.62155 66.7323L9.47973 67L13.1736 66.009L14.0451 65.6679L14.8359 65.9254L16.8018 65.7867L19.02 65.2321L20.8942 64.3459L21.3891 64.6429L22.605 64.6381L23.4592 64.108L26.3248 63.8298L26.6467 63.9731L29.9322 63.4287L30.2093 63.1861L39.9229 61.5766L40.2449 61.7199L45.3229 60.8785L45.6 60.6359L49.632 59.9678L50.553 60.0118L50.8301 59.7693L52.8133 59.8196L53.2216 59.373L54.8667 59.1004L55.1886 59.2437L57.2806 58.8971L57.5577 58.6545L58.9033 58.4315L59.2252 58.5748L60.8703 58.3023L61.5724 57.7974L61.9163 58.1289L64.9069 57.6334L65.9085 57.0789L67.1463 57.2623L68.7914 56.9897L69.0685 56.7471L70.5661 56.499L70.888 56.6423L72.9801 56.2956L74.2375 55.315L74.8532 54.0665L75 52.7039L74.4757 48.1953L74.2804 47.8487L73.4518 40.7236L73.4374 40.7211ZM11.5323 58.438L11.4666 57.8733L11.8099 58.2002L11.5323 58.438ZM15.9178 54.2672L15.9616 54.6437L15.7053 55.0651L15.2324 54.9564L15.6183 54.3168L15.9178 54.2672ZM13.9282 51.5365L14.5486 51.6208L15.0008 52.8842L14.0855 52.8487L13.8021 51.7444L13.9328 51.5357L13.9282 51.5365ZM14.5769 54.4894L14.2117 53.9743L14.5331 54.1129L14.5769 54.4894ZM15.7377 57.9283L15.4168 57.7944L15.9456 57.1311L16.7145 57.2004L17.0572 57.5226L16.7358 57.3839L15.7331 57.9291L15.7377 57.9283ZM17.5637 61.8374L17.498 61.2726L17.82 61.4159L18.0153 61.7625L17.5637 61.8374ZM17.5783 51.5025L17.2575 51.3686L17.3663 50.9716L17.6872 51.1055L17.5789 51.5072L17.5783 51.5025ZM21.5454 56.7789L21.4147 56.9876L21.0506 56.4819L21.2631 55.684L21.5626 55.6343L21.7585 55.9856L21.546 56.7836L21.5454 56.7789ZM21.9594 52.5034L21.8552 52.8996L21.5557 52.9492L21.4676 52.1916L21.9099 52.1183L21.9543 52.4995L21.9594 52.5034ZM22.8247 55.9865L23.255 55.7281L23.4238 55.8872L23.6196 56.2385L22.8293 55.9857L22.8247 55.9865ZM23.3972 54.3662L23.119 54.5994L23.0758 54.2276L23.354 53.9944L23.3972 54.3662ZM25.0043 56.3928L24.4882 55.9123L24.5964 55.5106L25.1034 55.9926L24.9992 56.3888L25.0043 56.3928ZM26.2311 53.8966L25.9316 53.9462L25.6971 53.2224L25.9523 52.7915L26.3175 53.3067L26.2311 53.8966ZM26.3607 52.3449L26.0352 52.2118L26.2736 51.5966L26.7206 51.5226L26.9165 51.8739L26.3653 52.3442L26.3607 52.3449ZM26.6549 50.9578L26.4424 50.4222L26.8847 50.3489L27.1019 50.8838L26.6503 50.9586L26.6549 50.9578ZM27.7494 52.4938L27.8536 52.0975L28.0276 52.2606L27.7494 52.4938ZM32.4884 43.4867L32.5322 43.8632L32.2765 44.2893L32.1031 44.1309L31.9124 43.7836L32.4844 43.4921L32.4884 43.4867ZM29.5098 55.8381L29.6135 55.4372L29.7869 55.5955L29.5098 55.8381ZM29.3035 52.8119L28.9826 52.678L29.2165 52.0636L29.5373 52.1975L29.3035 52.8119ZM30.0102 50.9727L29.8805 51.1909L29.198 50.5317L29.4762 50.2985L29.9715 50.6002L30.0148 50.9719L30.0102 50.9727ZM32.4252 61.2792L32.2777 61.3036L32.4038 61.0956L32.4252 61.2792ZM32.0223 55.2299L31.3408 54.5801L31.4059 53.8066L31.8915 54.1051L32.1306 54.8282L32.0218 55.2252L32.0223 55.2299ZM32.017 52.5589L31.8045 53.3568L31.505 53.4065L31.5268 52.2612L31.2434 51.1569L31.5429 51.1073L31.9294 51.8059L32.0175 52.5636L32.017 52.5589ZM32.2278 50.4134L32.0981 50.6315L31.7554 50.3094L32.1845 50.0416L32.2278 50.4134ZM32.0313 48.7239L31.988 48.3521L32.757 48.4213L32.8002 48.7931L32.522 49.0263L32.0267 48.7246L32.0313 48.7239ZM33.7117 55.3385L33.5199 54.9818L34.093 54.6997L34.6973 55.9379L33.7071 55.3393L33.7117 55.3385ZM34.6482 54.224L34.0314 54.1295L33.9443 53.3812L34.074 53.1631L34.6045 53.8475L34.6482 54.224ZM36.4944 55.6401L35.7208 55.5716L35.6338 54.8233L36.7023 54.843L37.0664 55.3487L36.4944 55.6401ZM36.8109 49.275L36.6197 48.9229L36.9417 49.0662L36.8109 49.275ZM38.1065 52.4997L38.2107 52.1034L38.2326 52.2917L38.4504 52.8312L38.1065 52.4997ZM39.2894 48.2935L40.0135 47.9768L40.2042 48.3242L39.6968 49.171L39.3972 49.2206L39.2889 48.2888L39.2894 48.2935ZM37.8114 46.044L38.2537 45.9707L38.771 46.4606L38.8148 46.8371L39.0106 47.1884L38.3856 47.1049L37.8119 46.0487L37.8114 46.044ZM40.4938 59.9422L40.234 60.3738L39.9344 60.4234L39.6989 59.6902L40.1199 59.4333L40.4454 59.5665L40.4886 59.9382L40.4938 59.9422ZM41.2504 54.6554L40.9031 54.334L41.2072 54.2836L41.2504 54.6554ZM41.7849 54.0008L41.4629 53.8575L41.2884 53.6897L41.8661 53.4069L42.187 53.5408L41.7843 53.9961L41.7849 54.0008ZM41.7526 52.4711L40.6852 52.4609L39.8339 51.6426L39.187 51.3708L39.0119 49.8649L40.4231 50.2066L40.706 51.3062L42.2906 51.8064L41.7526 52.4711ZM42.1822 50.8745L41.752 51.1329L41.1138 50.8549L40.9184 50.5083L40.8747 50.1318L41.6212 50.0081L42.1384 50.498L42.1822 50.8745ZM43.2128 54.5269L42.9133 54.5765L42.9737 53.8038L43.2687 53.7549L43.2082 54.5276L43.2128 54.5269ZM42.9384 46.9165L43.0472 46.5195L43.512 46.6392L43.7511 47.3623L43.474 47.6049L42.9343 46.922L42.9384 46.9165ZM44.2742 50.5279L43.9477 50.3853L44.0565 49.9883L44.3785 50.1317L44.2748 50.5326L44.2742 50.5279ZM43.3363 45.1285L43.2931 44.7567L43.9186 44.8449L44.1531 45.5688L43.341 45.1277L43.3363 45.1285ZM46.383 50.3655L46.1059 50.6081L45.6157 50.3104L45.398 49.7709L45.97 49.4794L46.4872 49.9693L46.3789 50.371L46.383 50.3655ZM46.2083 47.5307L45.8864 47.3874L45.7343 47.4126L45.8431 47.0156L46.3079 47.1353L46.2043 47.5362L46.2083 47.5307ZM47.6841 48.4279L47.7498 48.9926L47.4284 48.854L47.445 47.7048L47.7492 47.6544L47.6841 48.4279ZM49.4174 51.58L49.1404 51.8226L48.7971 51.4957L49.0528 51.0696L49.3737 51.2035L49.4174 51.58ZM49.0573 49.7353L48.7745 49.9693L48.267 49.4825L48.4571 48.4916L49.5464 48.6901L49.0614 49.7299L49.0573 49.7353ZM50.9591 45.2085L50.4516 44.7218L50.5548 44.3162L50.8767 44.4595L50.9637 45.2078L50.9591 45.2085ZM54.8652 49.9194L54.735 50.1329L54.4568 50.366L54.5432 49.7761L54.8652 49.9194ZM54.02 45.277L54.0638 45.6535L53.4694 45.752L54.02 45.277ZM53.0243 49.8407L53.9009 49.5036L53.7921 49.9005L53.1113 50.589L52.7904 50.4551L53.0243 49.8407ZM54.8492 53.7404L54.5716 53.9782L54.3371 53.2544L53.6678 52.7897L53.3896 53.0228L54.5611 51.3033L55.1769 51.3884L55.4384 52.3044L54.8446 53.7411L54.8492 53.7404ZM54.9405 46.6498L54.8973 46.278L55.088 46.6254L54.9405 46.6498ZM55.589 43.0982L55.8718 42.8643L56.1713 42.8147L56.1287 43.7811L55.5118 43.6866L55.5936 43.0975L55.589 43.0982ZM56.3517 46.9916L56.6513 46.942L56.5424 47.339L55.9699 47.6257L56.3558 46.9862L56.3517 46.9916ZM56.266 48.9198L56.0961 48.7513L56.865 48.8205L57.6761 49.2522L57.4163 49.6838L56.4567 49.2671L56.2614 48.9206L56.266 48.9198ZM57.0287 52.8132L57.2839 52.3824L57.4757 52.7391L57.0287 52.8132ZM57.6179 51.3772L57.0235 51.4757L56.9578 50.911L57.9819 50.5494L57.6185 51.3819L57.6179 51.3772ZM57.5884 45.8321L57.692 45.4312L58.1436 45.3564L58.6822 46.0298L58.7265 46.411L58.275 46.4859L57.5924 45.8267L57.5884 45.8321ZM59.5143 57.1838L59.2742 56.4513L59.6215 56.7727L59.5138 57.1791L59.5143 57.1838ZM58.358 48.5731L58.2105 48.5976L58.3148 48.2014L58.6402 48.3345L58.3586 48.5778L58.358 48.5731ZM61.0981 49.8412L60.946 49.8664L61.2018 49.4403L61.0981 49.8412ZM61.2663 48.6621L59.3706 49.3647L58.8972 49.2513L59.578 48.5629L60.45 46.893L60.3405 45.9517L61.3439 46.7448L60.8151 47.4081L60.9235 48.3399L61.2663 48.6621ZM61.2333 44.4607L60.3341 43.2713L61.4025 43.291L62.0402 43.5643L62.0615 43.7478L61.6756 44.3874L61.2333 44.4607ZM62.7539 45.7437L62.6232 45.9524L62.258 45.4373L62.171 44.689L62.7879 44.7835L62.7499 45.7492L62.7539 45.7437ZM62.7037 41.3533L62.4209 41.5872L62.1864 40.8634L62.6155 40.5956L62.9375 40.7389L62.7037 41.3533ZM64.6939 45.4222L64.4157 45.6554L64.198 45.1159L64.3068 44.7189L64.8016 45.0158L64.6939 45.4222ZM67.5305 40.9372L67.0789 41.0121L67.0133 40.4473L67.4649 40.3725L67.6561 40.7245L67.5305 40.9372ZM69.5689 38.8774L69.0517 38.3875L69.16 37.9858L69.4595 37.9361L69.6939 38.66L69.5689 38.8774Z" fill="white"/>

</svg>
