<svg width="1049" height="788" viewBox="0 0 1049 788" fill="none" xmlns="http://www.w3.org/2000/svg"
    xmlns:xlink="http://www.w3.org/1999/xlink">
    <rect width="1049" height="788" fill="#513893" />
    <rect width="1049" height="788" fill="url(#pattern0_6389_2746)" fill-opacity="0.2" />
    <defs>
        <pattern id="pattern0_6389_2746" patternUnits="userSpaceOnUse" patternTransform="matrix(1053 0 0 790 0 0)"
            preserveAspectRatio="none" viewBox="0 0 1053 790" width="1" height="1">
            <g id="pattern0_6389_2746_inner">
                <g clip-path="url(#clip0_6389_2746)">
                    <path
                        d="M1023.71 72.9242C1033.23 88.789 1036.7 107.758 1046.43 123.642C1048.82 121.63 1050.97 119.426 1053 117.089V42.191C1043.33 52.7484 1034.38 64.1105 1023.71 72.9242Z"
                        fill="#513893" />
                    <path
                        d="M955.714 766.759C954.106 767.276 952.65 767.525 951.5 767.659C949.259 767.908 947.938 767.755 947.938 767.755C946.08 768.004 945.122 768.387 943.494 768.885C928.324 773.56 909.878 780.841 889.459 789.981H1053V737.386C1035.36 740.528 1018.69 743.057 1000.94 749.476C985.825 754.917 971.977 762.294 955.714 766.759Z"
                        fill="#8B6CDE" />
                    <path
                        d="M987.07 677.797C980.73 680.345 974.486 682.434 967.954 683.948C966.805 684.254 965.828 684.427 965.062 684.522C965.407 686.017 965.924 686.917 965.924 686.917C968.299 691.976 965.751 697.513 967.016 702.629C956.94 706.921 946.616 712.017 935.928 715.639C940.697 732.251 949.087 740.873 950.619 758.366C950.619 758.366 952.918 764.843 951.52 767.621C952.669 767.506 954.105 767.238 955.733 766.72C971.996 762.256 985.844 754.879 1000.96 749.438C1018.71 743.019 1035.38 740.49 1053.02 737.347V648.75C1044.67 653.08 1036.35 658.752 1027.29 662.507C1013.83 668.064 999.693 672.624 987.089 677.759L987.07 677.797Z"
                        fill="#9E84E4" />
                    <path
                        d="M1017.6 221.628C1018.2 223.544 1018.79 225.498 1019.81 227.242C1019.81 227.242 1022.47 234.082 1024.31 237.128C1036.93 256.423 1034.32 281.695 1048.31 300.511C1049.88 299.055 1051.43 297.541 1053 295.989V183.844C1041.49 196.815 1030.19 210.227 1017.58 221.609L1017.6 221.628Z"
                        fill="#845ECE" />
                    <path
                        d="M965.407 678.276C964.506 680.786 964.698 682.99 965.062 684.561C965.828 684.446 966.805 684.273 967.954 683.986C974.505 682.453 980.749 680.365 987.07 677.835C999.693 672.7 1013.81 668.159 1027.28 662.584C1036.34 658.828 1044.65 653.157 1053 648.827V543.215C1017.56 566.533 989.177 600.064 951.5 620.488C955.274 639.304 965.732 658.081 965.388 678.295L965.407 678.276Z"
                        fill="#513893" />
                    <path
                        d="M969.468 136.766C975.252 142.764 975.08 152.133 980.271 158.763C980.271 158.763 981.324 160.985 982.742 163.399C983.163 164.626 984.14 165.814 985.404 166.235C1007.91 155.716 1028.56 141.384 1046.43 124.14V123.642C1036.7 107.758 1033.23 88.789 1023.71 72.9242C1004.42 89.9003 984.427 106.436 962.553 119.771C963.491 123.852 964.545 128.144 966.767 131.881C966.767 131.881 967.878 134.774 969.468 136.766Z"
                        fill="#BDAAF0" />
                    <path
                        d="M909.092 424.287C878.35 439.193 845.806 455.92 827.303 480.484C824.832 483.588 827.59 489.911 827.59 489.911C837.148 527.886 855.709 562.931 871.722 598.32C876.147 596.116 883.904 584.735 890.398 579.045C895.493 574.638 899.994 569.733 905.089 564.329C912.828 556.09 924.205 548.695 932.863 540.896C942.421 532.312 951.252 527.063 960.427 518.038C968.874 509.703 978.01 502.499 985.404 495.103C999.387 481.039 1011.82 463.623 1030.59 457.07C1031.3 456.687 1031.49 455.748 1031.78 455.096C1029.27 430.916 1022.18 407.598 1012.03 385.41C1004.85 388.342 994.962 389.453 986.343 391.522C960.427 397.845 935.487 411.487 909.092 424.287Z"
                        fill="#9E84E4" />
                    <path
                        d="M877.583 393.611C845.48 410.434 812.228 428.234 789.338 454.866C789.3 455.211 789.3 455.748 789.089 456.533C799.49 469.16 806.118 484.144 815.542 497.345C817.744 495.429 819.583 493.111 820.848 490.505C820.848 490.505 824.2 484.335 827.303 480.484C845.806 455.92 878.33 439.193 909.092 424.287C935.506 411.487 960.446 397.864 986.343 391.522C994.962 389.453 1004.85 388.342 1012.03 385.41C1011.99 385.334 1011.99 385.238 1011.95 385.161C1007.87 375.888 1004.98 372.573 1004.98 372.573C1000.06 366.71 997.797 358.222 994.081 351.496C960.637 356.9 926.044 370.101 894.573 384.606C888.75 387.269 883.234 390.679 877.583 393.611Z"
                        fill="#8B6CDE" />
                    <path
                        d="M854.559 350.481C846.572 353.891 838.872 358.586 830.865 361.402C822.84 364.238 815.063 366.633 807.382 369.565C783.247 378.742 763.001 396.025 741.05 408.441C740.59 409.342 740.59 409.801 740.379 410.529C743.808 422.639 740.839 436.396 744.402 450.038C748.003 463.699 750.091 475.981 754.822 488.512C766.755 478.702 776.217 465.271 789.089 456.533C789.3 455.767 789.3 455.211 789.338 454.866C812.228 428.234 845.48 410.434 877.583 393.611C883.234 390.679 888.75 387.288 894.573 384.606C926.044 370.101 960.637 356.9 994.081 351.496C990.978 337.222 985.193 323.158 979.677 309.689C963.376 314.996 946.424 316.031 930.718 321.127C905.951 329.194 879.173 340.058 854.579 350.481H854.559Z"
                        fill="#BDAAF0" />
                    <path
                        d="M658.82 33.9521C662.21 43.7622 663.206 54.6453 667.784 63.689C667.899 63.7848 668.033 63.8614 668.167 63.9381C720.018 65.8541 764.878 64.5704 822.667 59.0905C846.649 56.7913 871.454 55.6033 890.493 48.6864C897.466 46.1381 903.997 44.7011 910.931 42.7084C922.941 36.2322 936.234 30.4841 948.168 23.7205C955.274 15.29 964.315 8.12398 972.13 0H649.453C650.296 3.92787 651.043 7.89406 651.675 12.0519C652.958 19.9076 656.272 26.5371 658.82 33.9713V33.9521Z"
                        fill="#8B6CDE" />
                    <path
                        d="M961.844 684.637C950.792 687.55 938.571 687.914 928.247 693.087C928.209 693.125 928.209 693.221 928.17 693.298C931.522 700.387 929.569 710.504 935.928 715.639C946.616 712.037 956.94 706.921 967.016 702.629C965.732 697.494 968.28 691.976 965.924 686.917C965.924 686.917 965.407 686.017 965.062 684.522C962.572 684.963 961.844 684.618 961.844 684.618V684.637Z"
                        fill="#9E84E4" />
                    <path
                        d="M675.043 312.39C665.198 317.142 626.544 337.203 625.912 344.081C629.13 351.841 633.172 362.226 636.351 372.573C638.765 380.39 640.642 388.169 641.351 394.799C641.485 391.484 646.12 388.208 646.12 388.208C648.783 387.02 650.832 384.931 653.246 383.398C656.119 380.716 657.824 380.716 661.827 378.053C674.852 369.641 690.923 360.406 705.576 350.73C711.992 346.496 719.673 343.679 726.033 341.38C739.173 336.724 753.385 329.922 767.023 324.308C785.527 316.663 803.072 309.861 820.694 305.378C830.214 302.944 840.117 302.906 849.867 300.319C855.249 298.921 862.298 296.966 868.37 295.012C886.892 289.187 905.108 284.953 923.631 282.443C937.594 280.565 953.358 279.549 966.901 276.58C965.886 273.265 962.917 270.602 963.338 266.884C961.039 261.328 958.32 256.059 956.251 250.483C956.251 250.483 824.429 259.968 789.511 269.145C740.341 282.098 694.773 302.868 675.024 312.371L675.043 312.39Z"
                        fill="#6E49CF" />
                    <path
                        d="M948.167 23.7205C957.208 54.8944 948.34 89.8237 962.552 119.771C984.427 106.436 1004.42 89.9003 1023.71 72.9243C1034.38 64.1105 1043.33 52.7293 1053 42.1911V0H972.13C964.315 8.12398 955.274 15.29 948.167 23.7205Z"
                        fill="#A991EB" />
                    <path
                        d="M1049.11 466.42C1046.43 469.39 1044.78 472.973 1042.14 475.885C1037.52 481.039 1032.26 484.278 1026.83 488.55C1022.72 491.808 1018.77 496.023 1014.69 499.587C998.18 514.034 983.143 531.144 967.264 546.798C957.496 556.359 944.643 564.808 934.089 576.611C934.012 577.703 933.84 578.738 933.533 579.792L938.935 585.023C944.279 596.308 949.642 608.092 951.5 620.45C989.158 600.025 1017.56 566.495 1053 543.176V462.684C1051.64 463.872 1050.32 465.079 1049.11 466.42Z"
                        fill="#BDAAF0" />
                    <path
                        d="M933.802 214.385C837.953 208.656 743.502 226.226 650.334 243.681C642.94 246.095 633.267 265.562 633.267 265.562C623.805 285.24 622.905 308.117 618.193 328.638C618.71 329.673 619.476 330.458 620.281 331.186C620.281 331.186 622.694 336.321 625.931 344.062C626.563 337.184 665.217 317.123 675.063 312.371C694.811 302.848 740.38 282.079 789.549 269.145C824.449 259.948 956.289 250.483 956.289 250.483C955.944 249.602 955.657 248.74 955.351 247.858C953.493 242.838 952.937 241.535 952.937 241.535C950.639 232.434 946.444 224.674 942.824 217.01C940.966 213.025 933.821 214.385 933.821 214.385H933.802Z"
                        fill="#9E84E4" />
                    <path
                        d="M1046.43 123.642V124.14C1028.54 141.384 1007.91 155.716 985.404 166.235C984.14 165.814 983.144 164.626 982.741 163.399C981.324 160.985 980.27 158.763 980.27 158.763C975.099 152.133 975.271 142.764 969.467 136.766C967.878 134.774 966.767 131.881 966.767 131.881C964.564 128.144 963.491 123.852 962.553 119.771C948.34 89.8236 957.208 54.9135 948.168 23.7205C936.234 30.4841 922.941 36.2513 910.931 42.7084C911.525 67.3869 908.499 91.0499 912.617 115.096C915.547 132.379 916.563 148.569 922.098 164.415C922.692 166.139 923.286 167.845 923.899 169.588C923.975 169.703 924.014 169.818 924.071 169.971C929.128 184.246 934.51 198.233 940.965 212.871C941.559 214.232 942.191 215.592 942.823 216.991C946.444 224.636 950.638 232.415 952.937 241.516C952.937 241.516 953.492 242.819 955.35 247.839C955.657 248.72 955.944 249.583 956.289 250.464C958.358 256.04 961.078 261.309 963.376 266.865C980.654 256.461 1015.73 224.693 1017.6 221.628C1030.21 210.246 1041.51 196.834 1053.02 183.863V117.089C1050.99 119.407 1048.84 121.63 1046.45 123.642H1046.43Z"
                        fill="#845ECE" />
                    <path
                        d="M1024.31 237.148C1022.49 234.101 1019.81 227.261 1019.81 227.261C1018.79 225.517 1018.2 223.563 1017.6 221.647C1015.73 224.713 980.654 256.48 963.376 266.884C962.955 270.582 965.924 273.265 966.939 276.58C972.245 287.022 976.995 298.346 979.677 309.708C985.193 323.177 990.978 337.241 994.081 351.516C997.816 358.241 1000.08 366.729 1004.98 372.592C1004.98 372.592 1007.87 375.907 1011.95 385.18C1011.99 385.257 1011.99 385.353 1012.03 385.429C1022.18 407.617 1029.27 430.935 1031.78 455.116C1031.49 455.786 1031.32 456.725 1030.59 457.089C1011.82 463.642 999.387 481.059 985.404 495.122C978.01 502.518 968.893 509.723 960.426 518.057C951.251 527.082 942.421 532.332 932.863 540.916C924.205 548.733 912.827 556.129 905.089 564.349C899.994 569.752 895.493 574.638 890.398 579.064C883.904 584.754 876.127 596.136 871.722 598.339C857.069 613.859 838.048 626.428 822.878 641.814C830.616 652.314 836.803 663.599 845.423 673.505C879.901 647.562 907.886 614.453 938.935 585.061L933.534 579.83C933.84 578.776 934.012 577.742 934.089 576.65C944.643 564.847 957.496 556.378 967.265 546.836C983.144 531.201 998.18 514.091 1014.69 499.625C1018.77 496.061 1022.72 491.846 1026.84 488.589C1032.24 484.297 1037.5 481.059 1042.14 475.924C1044.78 473.011 1046.43 469.428 1049.11 466.459C1050.32 465.117 1051.64 463.91 1053 462.722V296.046C1051.45 297.579 1049.9 299.112 1048.31 300.568C1034.32 281.753 1036.91 256.461 1024.31 237.186V237.148Z"
                        fill="#845ECE" />
                    <path
                        d="M947.957 767.736C947.957 767.736 949.279 767.889 951.52 767.64C952.937 764.842 950.619 758.385 950.619 758.385C949.087 740.892 940.697 732.27 935.928 715.658C929.549 710.504 931.503 700.406 928.17 693.317C889.995 700.406 854.56 729.76 816.595 742.329C813.933 743.306 811.979 743.938 810.619 744.36C810.408 744.456 810.236 744.494 810.064 744.532C807.976 745.184 807.42 745.222 807.42 745.222C775.873 759.497 743.981 774.039 713.104 789.981H889.459C909.878 780.841 928.324 773.56 943.494 768.885C945.141 768.387 946.08 768.004 947.938 767.755L947.957 767.736Z"
                        fill="#845ECE" />
                    <path
                        d="M802.957 662.641C792.384 672.413 781.715 681.112 775.049 694.332C775.336 698.548 779.933 700.196 781.121 703.932C781.121 703.932 793.935 714.125 797.211 718.8L799.26 717.018C812.879 701.039 829.563 687.281 845.422 673.467C836.803 663.561 830.597 652.276 822.878 641.776C815.618 645.474 810.983 655.207 802.957 662.641Z"
                        fill="#513893" />
                    <path
                        d="M827.302 480.484C824.199 484.335 820.847 490.505 820.847 490.505C819.583 493.091 817.744 495.429 815.542 497.345C815.542 497.517 815.542 497.652 815.58 497.805C816.059 503.495 810.025 506.81 809.336 512.328C787.844 544.364 763.461 574.025 739.134 603.838V604.356C752.274 622.5 749.593 648.443 762.158 667.355C764.322 675.843 771.812 682.779 771.831 691.784C772.425 693.049 773.861 693.7 775.068 694.332C781.734 681.131 792.384 672.413 802.976 662.641C811.002 655.207 815.637 645.474 822.897 641.776C838.067 626.39 857.088 613.821 871.741 598.301C855.728 562.912 837.167 527.867 827.609 489.892C827.609 489.892 824.851 483.569 827.322 480.465L827.302 480.484Z"
                        fill="#8B6CDE" />
                    <path
                        d="M799.28 717.018L797.23 718.8C802.019 726.369 808.895 732.576 810.064 742.521C810.064 742.521 812.266 743.67 810.619 744.379C811.979 743.958 813.933 743.325 816.595 742.348C854.579 729.779 889.995 700.425 928.17 693.336C928.209 693.259 928.209 693.164 928.247 693.125C938.571 687.952 950.792 687.569 961.844 684.676C961.844 684.676 962.553 685.021 965.062 684.58C964.698 683.028 964.526 680.824 965.407 678.295C965.751 658.081 955.293 639.304 951.52 620.488C949.662 608.111 944.298 596.346 938.954 585.061C907.905 614.453 879.92 647.562 845.442 673.505C829.601 687.32 812.918 701.077 799.28 717.057V717.018Z"
                        fill="#5C3DAE" />
                    <path
                        d="M915.452 165.43C870.055 160.334 824.391 169.607 779.167 170.412C778.305 170.45 777.558 170.412 776.83 170.374V170.412C771.486 170.872 763.039 172.366 763.039 172.366C730.936 176.831 718.026 183.882 685.54 186.047C685.54 186.047 668.837 188.844 663.417 190.971C659.126 207.066 651.024 226.782 650.334 243.681C743.502 226.226 837.952 208.637 933.802 214.385C933.802 214.385 940.927 213.025 942.804 217.01C942.172 215.611 941.54 214.251 940.946 212.891C934.491 198.233 929.109 184.246 924.052 169.991C924.014 169.856 923.956 169.741 923.88 169.607C921.447 164.626 915.471 165.43 915.471 165.43H915.452Z"
                        fill="#513893" />
                    <path
                        d="M549.16 700.828L544.103 703.587C527.458 719.337 513.149 742.157 495.814 759.957C488.593 767.372 479.322 778.983 471.009 789.981H660.888C657.708 771.395 655.18 752.484 648.265 735.24C613.998 729.166 580.822 714.604 549.141 700.847L549.16 700.828Z"
                        fill="#513893" />
                    <path
                        d="M754.802 488.512C750.09 475.981 748.003 463.699 744.382 450.038C740.82 436.396 743.789 422.62 740.36 410.529C713.563 426.931 690.328 449.157 664.719 467.244C662.21 469.562 659.834 472.053 657.536 474.64C649.683 483.396 642.749 493.206 634.436 501.656C651.636 519.245 669.852 536.336 686.804 554.289C707.108 530.55 733.388 511.696 754.802 488.531V488.512Z"
                        fill="#513893" />
                    <path
                        d="M815.58 497.805C815.542 497.632 815.542 497.517 815.542 497.345C806.118 484.144 799.49 469.141 789.089 456.533C776.236 465.271 766.755 478.721 754.822 488.512C733.407 511.677 707.127 530.531 686.823 554.27C701.132 571.266 720.708 584.697 736.836 600.293C736.874 600.926 736.836 601.616 736.874 602.037C737.583 602.631 738.368 603.225 739.115 603.857C763.46 574.044 787.825 544.384 809.316 512.347C809.987 506.829 816.02 503.515 815.561 497.824L815.58 497.805Z"
                        fill="#694CB5" />
                    <path
                        d="M807.42 745.222C807.42 745.222 807.976 745.184 810.064 744.533C810.236 744.513 810.389 744.456 810.619 744.36C812.286 743.651 810.064 742.502 810.064 742.502C808.914 732.557 802.019 726.349 797.23 718.781C793.974 714.106 781.14 703.913 781.14 703.913C779.934 700.176 775.356 698.529 775.068 694.313C773.881 693.681 772.444 693.03 771.831 691.765C771.793 682.76 764.303 675.824 762.158 667.336C749.593 648.424 752.274 622.481 739.134 604.336V603.819C738.368 603.187 737.602 602.593 736.893 601.999C728.695 609.395 725.822 621.887 715.421 626.85C700.596 643.96 688.662 663.963 674.22 681.208C667.516 694.045 659.892 726.675 648.304 735.201C655.199 752.446 657.747 771.357 660.927 789.943H713.123C744 774.001 775.873 759.458 807.439 745.184L807.42 745.222Z"
                        fill="#9E84E4" />
                    <path
                        d="M685.54 186.047C718.026 183.882 730.936 176.831 763.039 172.366C763.039 172.366 771.486 170.872 776.83 170.412V170.374C770.471 170.163 768.173 168.304 768.173 168.304C760.645 165.143 753.06 163.208 743.885 160.449C730.381 156.406 716.379 151.405 702.951 145.829C692.455 141.461 680.732 136.537 672.381 135.387C672.381 151.271 662.995 175.375 663.397 191.009C668.837 188.883 685.521 186.085 685.521 186.085L685.54 186.047Z"
                        fill="#8B6CDE" />
                    <path
                        d="M868.408 294.993C862.336 296.947 855.287 298.901 849.905 300.3C840.136 302.887 830.233 302.944 820.732 305.358C803.11 309.842 785.565 316.644 767.061 324.289C753.423 329.903 739.192 336.705 726.071 341.361C719.711 343.66 712.011 346.476 705.614 350.711C690.961 360.387 674.909 369.603 661.865 378.033C657.862 380.716 656.157 380.716 653.284 383.379C650.87 384.893 648.821 386.981 646.158 388.188C646.158 388.188 641.523 391.446 641.389 394.78C641.389 395.124 641.427 395.508 641.523 395.833C647.039 414.361 652.441 432.794 656.157 451.916C656.157 451.916 661.003 466.478 657.574 474.602C659.854 472.015 662.248 469.543 664.757 467.206C690.367 449.118 713.601 426.892 740.398 410.491C740.609 409.763 740.609 409.303 741.069 408.403C763.02 396.006 783.285 378.704 807.401 369.526C815.082 366.595 822.839 364.2 830.884 361.364C838.891 358.567 846.61 353.853 854.578 350.443C879.173 340.038 905.97 329.155 930.718 321.089C946.443 315.992 963.376 314.958 979.676 309.65C976.995 298.288 972.245 286.984 966.939 276.522C953.396 279.492 937.632 280.526 923.669 282.385C905.146 284.895 886.93 289.129 868.408 294.954V294.993Z"
                        fill="#5C3DAE" />
                    <path
                        d="M672.381 135.349C641.753 133.567 622.254 128.298 603.693 115.901C602.084 117.223 601.816 119.388 601.088 121.208C587.833 152.133 546.44 193.347 537.093 233.315C577.605 215.209 619.859 199.785 663.398 190.971C662.976 175.336 672.381 151.252 672.381 135.349Z"
                        fill="#6E49CF" />
                    <path
                        d="M650.334 243.681C635.508 238.278 587.986 260.121 573.18 264.202C565.077 266.405 554.37 271.751 545.157 273.878C542.054 274.548 540.521 276.56 536.786 277.116C566.054 290.624 590.227 312.716 618.193 328.638C622.905 308.117 623.805 285.221 633.267 265.562C633.267 265.562 642.94 246.095 650.334 243.681Z"
                        fill="#BDAAF0" />
                    <path
                        d="M667.784 63.689C663.206 54.6453 662.21 43.7622 658.82 33.9521C656.272 26.5179 652.958 19.8884 651.675 12.0327C651.043 7.89406 650.296 3.9087 649.453 -0.019165H525.025C529.737 17.685 533.798 35.5999 539.353 53.055C581.914 54.9135 624.935 62.7693 667.784 63.6698V63.689Z"
                        fill="#694CB5" />
                    <path
                        d="M656.138 451.935C652.403 432.813 647.021 414.381 641.504 395.853C641.408 395.527 641.37 395.124 641.37 394.799C640.661 388.169 638.784 380.39 636.371 372.573L580.344 454.617C581.282 455.25 582.297 455.92 583.121 456.61C600.533 471.651 620.434 482.476 634.455 501.637C642.768 493.187 649.702 483.377 657.556 474.621C660.984 466.516 656.138 451.935 656.138 451.935Z"
                        fill="#BDAAF0" />
                    <path
                        d="M404.179 353.24C410.96 358.126 421.323 361.862 430.804 366.25C434.194 367.802 437.642 369.603 440.975 371.232C458.635 379.7 484.839 386.177 498.19 396.121C529.201 407.138 552.014 433.254 577.566 452.97C577.566 452.97 578.83 453.698 580.324 454.637L636.351 372.592C633.171 362.226 629.13 351.861 625.912 344.101C622.694 336.36 620.261 331.225 620.261 331.225C619.457 330.497 618.691 329.711 618.173 328.676C590.189 312.754 566.016 290.643 536.767 277.154C534.468 277.288 532.227 277.499 529.929 277.365C511.234 275.966 492.003 274.223 473.442 270.87C473.959 293.172 472.082 297.292 457.831 308.137C443.312 324.365 419.081 337.069 404.198 353.298L404.179 353.24Z"
                        fill="#6E49CF" />
                    <path
                        d="M537.112 233.316C546.44 193.328 587.852 152.114 601.107 121.208C601.835 119.388 602.084 117.223 603.712 115.901C603.712 115.901 563.66 102.067 514.145 50.3917V50.3534C491.811 47.5943 469.477 44.0497 447.354 42.536C447.354 42.536 478.384 130.425 473.461 270.831C492.022 274.185 511.253 275.928 529.948 277.327C530.369 262.248 533.127 247.724 537.131 233.316H537.112Z"
                        fill="#513893" />
                    <path
                        d="M573.18 264.202C588.005 260.121 635.508 238.278 650.334 243.681C651.023 226.782 659.126 207.066 663.416 190.971C619.878 199.785 577.643 215.209 537.112 233.315C533.108 247.724 530.35 262.248 529.929 277.327C532.227 277.461 534.468 277.25 536.767 277.116C540.521 276.56 542.034 274.568 545.137 273.878C554.351 271.751 565.058 266.405 573.16 264.202H573.18Z"
                        fill="#9E84E4" />
                    <path
                        d="M514.126 50.3534C522.535 51.4072 530.982 52.4035 539.353 53.0741C533.798 35.5999 529.737 17.7042 525.025 0H432.241C436.033 14.4277 441.435 32.1127 447.334 42.536C469.458 44.0688 491.792 47.5943 514.126 50.3534Z"
                        fill="#9E84E4" />
                    <path
                        d="M498.209 396.102C495.872 420.78 490.451 444.482 482.751 467.8C482.885 467.972 482.981 468.145 483.096 468.317C500.22 474.563 515.045 478.549 528.837 481.557C533.932 482.706 539.889 484.718 544.716 482.362C551.975 478.836 562.51 470.425 570.785 464.562C572.969 463.029 575.42 461.879 577.202 459.158L580.343 454.579C578.849 453.64 577.585 452.912 577.585 452.912C552.014 433.196 529.22 407.081 498.209 396.063V396.102Z"
                        fill="#694CB5" />
                    <path
                        d="M432.241 0H323.865C356.255 29.8327 404.237 39.432 447.335 42.536C441.435 32.1127 436.034 14.4277 432.241 0Z"
                        fill="#513893" />
                    <path
                        d="M440.995 371.212C437.643 369.603 434.214 367.802 430.824 366.231C421.342 361.862 410.979 358.107 404.199 353.221C376.08 343.622 311.28 321.396 311.28 321.396C303.293 348.584 309.786 378.014 298.37 404.628C336.296 416.297 471.987 466.803 482.771 467.781C490.471 444.462 495.911 420.761 498.228 396.083C484.897 386.138 458.693 379.662 441.014 371.193L440.995 371.212Z"
                        fill="#9E84E4" />
                    <path
                        d="M522.459 688.757C522.459 688.757 539.142 696.498 549.179 700.828C580.861 714.585 614.036 729.166 648.304 735.221C659.892 726.694 667.496 694.064 674.22 681.227C662.574 670.88 651.924 667.125 637.309 660.534C619.093 652.295 601.586 637.809 584.557 627.961C576.11 623.037 564.311 619.166 555.174 615.296C532.323 605.62 507.652 601.117 484.552 598.128C471.048 596.385 458.042 593.932 444.212 593.338C424.387 592.495 405.099 587.935 385.197 583.394C347.271 574.906 308.675 569.12 270.309 564.061C265.041 570.902 256.115 574.983 251.192 582.666C270.864 612.115 302.833 627.348 329.419 649.171C329.419 649.171 330.339 649.995 331.737 651.26C332.388 651.854 333.155 652.544 333.997 653.253C356.293 673.467 379.949 691.822 406.861 705.235C427.72 689.274 447.718 670.363 466.91 652.39C493.286 667.853 495.24 674.866 522.459 688.718V688.757Z"
                        fill="#6E49CF" />
                    <path
                        d="M544.103 703.587L549.16 700.828C539.142 696.478 522.439 688.757 522.439 688.757C495.221 674.904 493.267 667.91 466.891 652.429C447.699 670.401 427.701 689.312 406.842 705.273C400.942 710.964 393.127 714.968 385.906 719.796C381.52 722.747 376.808 725.545 372.096 728.342C362.499 734.071 351.294 742.674 340.414 749.917C335.951 752.944 331.028 755.607 326.45 758.922C309.48 771.357 292.968 780.516 277.855 789.981H471.01C479.323 778.964 488.593 767.372 495.815 759.937C513.13 742.137 527.458 719.317 544.103 703.568V703.587Z"
                        fill="#8B6CDE" />
                    <path
                        d="M245.676 490.926C254.698 491.616 264.658 493.609 273.412 494.567C282.663 495.621 291.589 496.54 298.983 499.453C337.503 504.204 373.801 514.359 413.086 523.614C424.139 526.2 433.697 529.822 444.347 531.182C463.75 533.73 481.851 538.061 502.844 542.736C514.395 545.342 526.079 544.901 537.782 546.97C552.723 549.653 568.525 554.021 584.155 557.681C598.694 561.072 609.727 570.423 625.395 576.113C654.184 595.197 689.218 603.647 715.383 626.85C725.784 621.868 728.676 609.395 736.855 601.999C736.817 601.577 736.855 600.907 736.817 600.255C720.689 584.659 701.113 571.246 686.804 554.232C669.853 536.279 651.637 519.188 634.436 501.599C620.415 482.438 600.494 471.613 583.102 456.572C582.297 455.882 581.282 455.211 580.324 454.579L577.183 459.158C575.402 461.879 572.95 463.029 570.766 464.562C562.492 470.425 551.957 478.836 544.697 482.362C539.851 484.699 533.913 482.706 528.818 481.557C515.027 478.549 500.201 474.544 483.077 468.317C482.962 468.145 482.866 467.972 482.732 467.8C471.948 466.823 336.258 416.316 298.332 404.647C285.039 402.099 271.037 398.305 257.169 392.653C242.65 386.694 224.644 382.804 208.171 377.191C182.466 368.511 143.946 359.774 114.697 356.804C97.3818 355.06 61.831 357.436 42.6382 359.007C43.4427 364.909 44.8984 371.174 47.3119 376.98C47.3119 376.98 64.7616 412.522 82.0199 428.004C107.495 450.843 195.28 490.83 210.987 491.003C221.905 487.861 233.992 489.987 245.676 490.926Z"
                        fill="#BDAAF0" />
                    <path
                        d="M444.193 593.357C458.042 593.971 471.048 596.423 484.533 598.148C507.633 601.117 532.304 605.639 555.155 615.315C564.292 619.186 576.091 623.056 584.538 627.98C601.567 637.829 619.074 652.314 637.29 660.553C651.886 667.144 662.555 670.88 674.201 681.246C688.643 664.002 700.576 643.998 715.402 626.888C689.237 603.685 654.203 595.235 625.414 576.152C609.746 570.461 598.694 561.111 584.175 557.719C568.544 554.06 552.742 549.691 537.801 547.009C526.098 544.939 514.395 545.361 502.864 542.774C481.87 538.099 463.788 533.769 444.366 531.221C433.716 529.86 424.158 526.239 413.106 523.652C373.82 514.398 337.522 504.243 299.002 499.491C291.609 496.559 282.683 495.659 273.431 494.605C264.677 493.628 254.717 491.635 245.695 490.965C234.011 490.026 221.905 487.899 211.006 491.041C238.436 498.61 272.416 533.654 270.29 564.119C308.637 569.177 347.252 574.944 385.178 583.452C405.08 587.993 424.368 592.534 444.193 593.396V593.357Z"
                        fill="#513893" />
                    <path
                        d="M326.469 758.941C331.047 755.626 335.97 752.944 340.433 749.936C351.313 742.674 362.518 734.09 372.115 728.361C376.827 725.564 381.539 722.766 385.925 719.816C393.146 714.987 400.961 710.983 406.861 705.292C379.93 691.88 356.274 673.524 333.997 653.31C333.135 652.582 332.388 651.911 331.737 651.317C329.534 649.325 323.29 655.399 319.306 658.253C308.311 666.147 298.523 673.793 287.452 681.955C279.867 687.53 271.611 692.627 264.313 698.854C231.521 726.982 187.599 751.104 162.603 778.044C162.603 778.14 162.564 778.274 162.507 778.389C170.877 782.508 181.681 786.206 192.503 790.019H277.913C293.026 780.573 309.537 771.395 326.508 758.96L326.469 758.941Z"
                        fill="#513893" />
                    <path
                        d="M114.716 356.804C143.984 359.793 182.504 368.53 208.19 377.19C224.663 382.804 242.668 386.694 257.187 392.653C271.036 398.305 285.057 402.08 298.35 404.647C309.767 378.053 303.273 348.603 311.261 321.415C307.564 318.656 302.584 319.211 298.772 316.567C269.044 308.328 238.876 295.491 208.19 285.566C167.927 272.537 131.017 254.641 90.0452 248.644C79.9316 247.168 69.4541 242.991 59.6853 241.516C50.7019 259.91 44.649 327.278 42.7336 334.118C41.795 337.394 40.9905 347.549 42.6378 359.007C61.8306 357.436 97.3814 355.06 114.697 356.804H114.716Z"
                        fill="#513893" />
                    <path
                        d="M202.329 181.41C211.811 186.277 221.943 189.936 231.425 194.746C242.669 200.398 252.399 206.855 263.662 211.319C273.048 215.094 283.199 217.278 293.007 221.264C300.094 224.157 307.066 228.66 313.942 231.878C326.182 237.569 338.786 241.823 350.757 247.724C358.936 251.767 366.847 256.346 374.873 260.6C399.161 273.303 424.905 282.653 447.449 298.154C447.449 298.154 455.207 304.4 457.812 308.098C472.082 297.273 473.94 293.153 473.423 270.831C478.346 130.424 447.315 42.536 447.315 42.536C404.218 39.432 356.236 29.8327 323.845 0H115.885C106.039 42.0569 86.8466 117.3 86.272 123.718C122.531 141.767 163.35 161.311 202.348 181.41H202.329Z"
                        fill="#694CB5" />
                    <path
                        d="M251.154 582.685C250.867 582.685 250.464 582.723 250.139 582.819C220.277 614.453 184.477 640.454 151.359 668.696C134.369 683.2 117.436 697.8 98.2818 709.028C98.0328 709.45 97.7263 710.178 96.9601 710.638C83.7435 719.643 69.3585 727.882 56.1802 736.428C87.4212 753.212 161.722 778.561 162.488 778.351C162.526 778.216 162.583 778.101 162.583 778.006C187.599 751.085 231.501 726.943 264.294 698.816C271.592 692.57 279.828 687.492 287.433 681.916C298.523 673.773 308.292 666.128 319.287 658.215C323.271 655.36 329.515 649.286 331.718 651.279C330.319 650.015 329.4 649.191 329.4 649.191C302.814 627.367 270.826 612.115 251.173 582.685H251.154Z"
                        fill="#9E84E4" />
                    <path
                        d="M208.19 285.566C238.876 295.51 269.044 308.328 298.772 316.567C302.603 319.211 307.564 318.656 311.261 321.415C311.261 321.415 376.061 343.641 404.179 353.24C419.082 337.011 443.293 324.308 457.812 308.079C455.207 304.381 447.449 298.135 447.449 298.135C424.905 282.634 399.161 273.284 374.873 260.581C366.847 256.327 358.936 251.748 350.757 247.705C338.786 241.803 326.163 237.55 313.943 231.859C307.066 228.64 300.094 224.138 293.007 221.244C283.2 217.259 273.048 215.094 263.662 211.3C252.399 206.836 242.688 200.379 231.425 194.726C221.943 189.936 211.811 186.277 202.329 181.391C163.35 161.292 122.532 141.748 86.2529 123.699C83.8394 136.517 78.7252 149.566 75.9669 163.035C74.2238 171.619 58.7279 235.71 59.6664 241.497C69.4352 242.972 79.9127 247.149 90.0263 248.625C130.998 254.622 167.909 272.517 208.171 285.546L208.19 285.566Z"
                        fill="#845ECE" />
                    <path
                        d="M56.1803 736.428C69.3586 727.882 83.7436 719.643 96.9602 710.638C97.7264 710.178 98.0137 709.45 98.2819 709.028C117.436 697.8 134.369 683.2 151.359 668.696C184.477 640.454 220.277 614.453 250.139 582.819C250.484 582.723 250.867 582.685 251.154 582.685C256.077 574.983 265.003 570.921 270.27 564.08C272.396 533.616 238.416 498.571 210.987 491.003C195.261 490.85 107.495 450.862 82.0197 428.004C64.7615 412.522 47.3118 376.98 47.3118 376.98C44.8983 371.155 43.4425 364.909 42.6381 359.007C34.7464 359.64 29.5938 360.119 29.5938 360.119C16.7603 360.119 9.29005 363.031 -0.019043 366.921V701.307C3.7544 704.277 6.83827 707.975 10.7266 710.829C24.7286 721.253 40.2054 729.53 56.1611 736.409L56.1803 736.428Z"
                        fill="#513893" />
                    <path
                        d="M42.6379 359.026C40.9907 347.569 41.7951 337.414 42.7337 334.137C44.6492 327.297 50.702 259.929 59.6855 241.535C58.7277 235.749 74.2429 171.658 75.9859 163.074C78.7442 149.604 83.8584 136.556 86.2719 123.737C86.8657 117.3 106.039 42.0761 115.885 0.019165H0V366.94C9.28994 363.05 16.7794 360.138 29.6129 360.138C29.6129 360.138 34.7463 359.659 42.6571 359.026H42.6379Z"
                        fill="#9E84E4" />
                    <path
                        d="M56.1802 736.428C40.2245 729.53 24.7476 721.272 10.7457 710.849C6.85732 707.994 3.77344 704.296 0 701.326V790.019H192.465C181.642 786.187 170.858 782.489 162.469 778.389C161.702 778.6 87.402 753.231 56.161 736.466L56.1802 736.428Z"
                        fill="#513893" />
                    <path
                        d="M637.29 660.553C619.055 652.314 601.567 637.829 584.538 627.98C576.091 623.037 564.292 619.186 555.155 615.315C535.234 606.865 513.896 602.363 493.458 599.374C492.194 603.666 491.064 608.053 489.666 612.288C484.667 627.539 473.863 639.189 465.129 651.873C465.55 652.218 465.991 652.582 466.412 652.889C466.585 652.735 466.738 652.582 466.91 652.429C493.286 667.891 495.24 674.904 522.458 688.757C522.458 688.757 539.142 696.498 549.16 700.828C580.841 714.585 613.998 729.166 648.284 735.221C659.873 726.694 667.477 694.064 674.181 681.227C662.554 670.88 651.885 667.125 637.271 660.534L637.29 660.553Z"
                        fill="#6E49CF" />
                    <path
                        d="M493.459 599.374C490.47 598.933 487.482 598.531 484.533 598.147C471.029 596.404 458.023 593.951 444.174 593.357C437.336 593.07 430.555 592.304 423.794 591.288C410.96 589.353 398.184 586.402 385.14 583.413C373.839 580.884 362.48 578.623 351.064 576.516V668.159C368.36 682.434 386.672 695.252 406.823 705.292C427.49 689.466 447.335 670.746 466.393 652.908C466.374 652.908 466.355 652.869 466.317 652.85C476.718 642.044 484.82 626.965 489.628 612.288C491.026 608.053 492.156 603.647 493.42 599.374H493.459Z"
                        fill="#9E84E4" />
                    <path
                        d="M703.105 64.7428C701.477 64.7428 699.848 64.7237 698.201 64.7045C697.033 64.7045 695.845 64.6662 694.677 64.647C685.981 64.5129 677.189 64.3021 668.167 63.9572C668.052 63.8806 667.918 63.7848 667.803 63.7082C624.954 62.8076 581.933 54.9519 539.372 53.0933C531.001 52.4227 522.554 51.4264 514.146 50.3726V50.4109C563.66 102.067 603.712 115.92 603.712 115.92C622.254 128.298 641.695 133.567 672.247 135.368C672.304 135.368 672.343 135.368 672.4 135.368C677.419 136.058 683.644 138.108 690.08 140.579C694.37 142.227 698.776 144.067 702.971 145.81C703.794 146.155 704.637 146.481 705.461 146.807C707.051 147.458 708.66 148.052 710.249 148.665C718.141 124.638 725.554 90.82 736.261 64.4746C725.19 64.7428 714.214 64.8195 703.124 64.7428H703.105Z"
                        fill="#BDAAF0" />
                    <path
                        d="M922.098 164.415C916.562 148.55 915.547 132.379 912.617 115.096C908.498 91.0499 911.525 67.3869 910.931 42.7084C903.997 44.701 897.465 46.1381 890.493 48.6864C876.989 53.5914 860.593 55.6224 843.641 57.2128C836.688 57.8642 829.639 58.439 822.667 59.1096C791.081 62.0986 763.345 63.8422 736.242 64.4745C725.534 90.82 718.122 124.638 710.23 148.665C712.72 149.642 715.21 150.639 717.739 151.577C726.473 154.835 735.284 157.843 743.904 160.41C753.079 163.169 760.683 165.124 768.191 168.266C768.191 168.266 770.49 170.144 776.849 170.335C777.577 170.393 778.343 170.431 779.186 170.393C824.429 169.588 870.074 160.315 915.471 165.411C915.471 165.411 921.466 164.606 923.879 169.588C923.286 167.845 922.692 166.139 922.098 164.415Z"
                        fill="#9E84E4" />
                </g>
            </g>
        </pattern>
        <clipPath id="clip0_6389_2746">
            <rect width="1053" height="790" fill="white" />
        </clipPath>
    </defs>
</svg>