<svg width="75" height="67" viewBox="0 0 75 67" fill="none" xmlns="http://www.w3.org/2000/svg">
<g clip-path="url(#clip0_6909_19883)">
<path d="M74.4703 44.3101L74.2751 44.051L73.4456 38.6891L73.5502 38.3835L73.1111 36.5696L72.0516 35.5597L70.9503 35.2806L67.9461 35.4202L66.6775 36.0381L65.869 35.7192L61.868 36.2839L61.5962 36.47L58.0204 36.8287L57.4489 37.0546L56.5637 38.1908L56.1176 38.2506L56.006 37.5463L53.427 37.4732L50.7853 37.9915L50.4647 37.8918L48.1018 38.2307L46.9586 38.6758L46.5544 39.0213L45.8783 38.5429L45.0209 38.6625L45.3973 37.2207L45.3137 35.7324L45.711 35.3869L45.8922 34.6893L45.7876 34.5232L46.5056 32.3373L46.5753 30.8822L47.802 27.3475L47.7323 27.0352L48.1645 25.6399L48.7082 25.5868L49.0288 25.6864L51.3778 25.2081L52.8206 24.7164L56.5218 24.1915L56.8425 24.2912L58.9126 23.9988L59.2333 24.0985L61.0107 23.846L61.2825 23.6666L63.6942 23.6134L64.2449 23.248L65.4298 23.0819L65.7435 23.1816L68.5525 22.7829L70.0999 21.9923L70.6366 20.6169L70.079 17.9526L70.2602 16.1985L69.7862 15.1089L69.5702 13.6937L69.6747 13.388L69.4099 11.7004L69.0056 11.036L69.0823 9.58092L68.0576 7.85343L67.2491 7.53451L64.3076 8.09927L63.3806 7.93981L61.1989 8.53778L59.4284 8.79026L59.1078 8.6906L57.3374 8.94308L57.0237 8.85006L53.7616 9.30851L53.4898 9.4879H52.3257V9.45468L52.6046 8.3451L52.8206 8.09927L53.5037 5.47481L53.3225 3.81376L52.1933 2.81714L49.3982 2.29889L47.7672 1.46837H46.5265L45.0697 1.12951L44.8188 0.923542L43.0762 0.511603L42.2816 0.61791L40.8945 0L38.8313 0.252479L38.211 0.843812L37.6394 3.64766L37.1375 4.41174L36.8866 6.55781L36.4545 8.21222L36.2314 8.45805L35.7993 10.1125L35.5832 10.3583L35.2138 11.7868L29.756 12.5575L29.4842 12.7436L23.8592 13.5342L22.27 14.0458L19.8792 14.2385L19.7119 14.1255L15.2718 14.7501L15.1394 14.9096L12.6301 15.2683L12.3583 15.4544L10.7342 15.6869L6.05019 15.7667L2.2026 16.3115L0.975836 17.2084L0.0209108 18.9226L0 19.793L0.174257 19.906L0.348513 21.0355L0.53671 21.2946L0.787639 23.8526L0.662175 24.0187L0.927045 25.7064L1.40102 26.796L1.63104 29.2145L2.14684 30.5832L3.03903 31.4669L4.16125 31.8855L7.6882 31.2476L8.00883 31.3406L9.02649 31.0616L9.57714 30.6961L10.3787 31.0084L16.0107 30.2111L16.2825 30.0317L17.7672 29.8258L18.0809 29.9188L19.2588 29.7527L19.3913 29.5932L22.9879 29.3673L23.8383 28.962L29.4633 28.1714L30.6901 28.2843L31.1013 28.2245L31.0246 28.5301L30.8155 28.776L30.5228 29.8856L30.3067 30.1248L28.836 35.7989L28.9126 36.1112L27.5674 41.3003L26.717 41.5328L25.79 41.3734L22.5279 41.8318L22.256 42.0178L19.2937 42.4364L18.973 42.3301L11.8704 43.3334L8.51069 44.0975L8.19006 44.0045L6.30809 44.5559L5.38104 44.4031L4.20307 46.5891L4.80251 48.5292L5.14405 51.6519L5.03253 51.9576L5.89684 55.5853L5.71561 56.3361L5.93169 57.7446L6.87268 58.9074L8.29461 59.2795L10.1417 59.4522L13.8011 58.6483L14.6654 58.3825L15.4531 58.5619L17.4047 58.429L19.6004 57.9772L21.4545 57.2796L21.9493 57.4988L23.1273 57.4722L22.9461 57.9174L22.0121 61.5185L22.4164 62.9338L23.7268 64.4154L24.5632 64.7609L24.7444 64.6546L25.9085 64.927L26.2361 64.8606L28.8151 65.6114L28.9266 65.7841L30.6691 66.1961H31.9098L34.3494 66.9136L35.869 66.9801L37.0678 66.5283L37.8973 65.6977L38.6152 62.3424L38.8243 62.0966L38.9359 61.0933L38.7895 60.4688L39.4029 59.8841L40.6715 54.994L45.6622 54.2897L45.934 54.1036L49.928 53.5389L50.8411 53.5588L51.1129 53.3728L53.0785 53.3861L53.4828 53.0406L55.1069 52.808L55.4275 52.9143L57.4977 52.622L57.7695 52.4359L59.1008 52.2433L59.4215 52.3429L61.0455 52.117L61.7426 51.725L62.0841 51.9708L65.0465 51.5523L66.0362 51.1204L67.263 51.24L68.8871 51.0141L69.1589 50.828L70.6436 50.6221L70.9642 50.7217L73.0344 50.4294L74.2821 49.672L74.8885 48.7218L75.0349 47.692L74.5051 44.3035L74.4703 44.3101ZM64.9559 19.122L65.2556 19.0821L64.8792 19.5671L64.9559 19.122ZM63.4642 17.3148L63.8058 17.5539L63.7012 17.8529L63.3597 17.6137L63.4642 17.3081V17.3148ZM63.2272 20.6634L63.8615 20.8628L64.2449 21.3876L64.1473 21.6933L63.3388 21.3744L62.7811 20.7299L63.2272 20.6701V20.6634ZM62.8787 22.2979L62.4326 22.3577L62.3908 22.0786L62.6835 22.0388L62.8787 22.2979ZM62.3281 14.8763L62.6487 14.9826L62.3559 16.0324L62.342 16.8962L61.7217 16.8364L62.0144 15.7866L61.9238 15.2218L61.6032 15.1288L62.3211 14.8763H62.3281ZM61.6938 18.5705L61.6519 18.2915L61.9656 18.3911L62.1817 18.7964L61.5892 18.8761L61.6938 18.5705ZM2.80902 18.3845L2.9066 18.0855L3.24814 18.3247L2.80902 18.3845ZM7.04693 23.2679L6.85177 23.0088L7.10269 22.6833L7.04693 23.2679ZM12.1213 52.9808L12.0585 52.5555L12.4001 52.7947L12.1283 52.9808H12.1213ZM14.77 49.5723L15.0906 49.672L15.1324 49.951L14.77 49.5656V49.5723ZM14.6375 48.7285L14.3518 47.898L14.4842 47.7385L15.0976 47.7916L15.5437 48.7351L14.6375 48.7218V48.7285ZM16.171 49.8115L16.4638 49.7716L16.5056 50.0507L16.2546 50.3696L15.7876 50.2965L16.171 49.8115ZM17.2793 52.1037L16.2895 52.529L15.9689 52.4359L16.4916 51.9243L17.2584 51.9642L17.5999 52.2034L17.2793 52.1037ZM17.8927 47.2601L18.2063 47.3598L18.1018 47.6588L17.7811 47.5658L17.8927 47.2601ZM18.1018 55.4524L18.039 55.0272L18.3597 55.1268L18.5548 55.386L18.1087 55.4458L18.1018 55.4524ZM22.0469 51.5788L21.9145 51.7383L21.552 51.3596L21.7612 50.755L22.0609 50.7151L22.256 50.9742L22.0469 51.5788ZM22.3467 48.6488L22.0539 48.6886L21.9633 48.1239L22.4024 48.0641L22.4442 48.3498L22.3467 48.6488ZM26.6822 49.3397L26.3824 49.3796L26.6752 49.3397H26.6822ZM32.1956 40.5761L32.6278 40.091L32.9554 40.0179L33.2063 40.2239L32.6208 40.5628L32.3211 40.6026L32.1887 40.5694L32.1956 40.5761ZM34.6701 31.613L35.3253 32.0582L34.6004 32.4768L35.1092 32.8887L35.4298 32.8156L35.5414 32.9884L35.3253 33.8189L35.7296 34.0648L36.4545 33.6528L36.559 33.8189L36.3429 34.0648L36.6705 34.583L37.5418 34.789L38.7407 34.3372L39.0265 33.8189L39.1101 34.7159L40.7342 34.3704L41.1733 34.4767L41.257 35.9583L39.4029 37.141L39.2565 37.6991L37.256 37.0812L36.4963 36.4633L36.8587 36.2573L38.2388 36.2906L38.197 35.8454L37.8415 35.46L36.8239 35.8122L36.5381 35.1544L36.6078 34.8753L36.3151 34.8089L35.7783 35.1212L35.9247 36.3304L36.8099 38.3037L36.7751 39.0346L36.2035 40.1973L35.1719 40.1043L35.5832 39.4931L35.3253 38.6958L35.618 38.1775L34.2031 38.2838L34.4191 37.4533L36.1617 37.8652L35.4298 37.1012L35.2486 36.6161L34.7398 36.2042L35.1371 35.852L34.447 34.9617V34.3704L34.6631 34.1312L34.3355 33.6129L34.2937 33.1678L34.6213 32.51L34.8443 32.2642L34.691 31.6463L34.6701 31.613ZM32.4884 22.4108L31.8889 22.4906L31.7356 20.4907L32.0493 19.5804L32.3908 19.8196L32.8857 21.0488L33.1366 20.9226L33.0948 21.0887L32.8717 21.3345L32.579 22.464L32.4884 22.4042V22.4108ZM33.513 19.0954L33.5618 19.2947L33.3318 20.1784L32.802 19.6203L33.3318 19.1153L33.506 19.0888L33.513 19.0954ZM40.2323 32.7758L40.1208 32.603L38.9638 32.3306L40.4414 31.3606L40.1557 32.4701L40.2323 32.7824V32.7758ZM45.3346 16.5507L44.9512 16.9825L44.6585 16.9161L44.7282 16.637L44.993 16.4842L45.3346 16.5507ZM40.4205 18.1984L40.4624 18.2516L40.0163 18.318L39.9744 18.0456L40.4205 18.2051V18.1984ZM40.323 19.2814L41.0479 18.6104L41.1176 19.4675L41.006 19.7598L40.1557 19.7399L40.316 19.2881L40.323 19.2814ZM43.1389 17.0091L42.9995 16.9626L43.1389 16.9958V17.0091ZM39.8769 19.3479L39.7375 19.4409L39.6956 19.102L39.8699 19.3479H39.8769ZM38.0855 28.5966L38.4061 28.5235L38.3016 28.9421L38.0088 28.8756L38.0785 28.6032L38.0855 28.5966ZM38.2319 29.7992L38.5943 29.5932L39.2426 29.4537L39.3192 29.766L38.8174 30.53L38.3783 30.4237L38.1622 30.0782L38.2388 29.7992H38.2319ZM38.8801 27.9056L38.5874 27.8391L38.6919 27.4206L40.3299 28.8358L40.3717 29.2876L39.8629 29.467L39.3611 29.0484L38.8871 27.9122L38.8801 27.9056ZM44.2263 19.7798L44.1566 20.0389L43.9405 19.6934L44.1148 19.5871L44.2193 19.7532V19.7798H44.2263ZM44.2193 17.9925H44.2054L44.1845 17.8795L44.2402 17.9061L44.2193 17.9925ZM42.3513 14.8165L42.1561 14.5574L42.5813 14.3514L42.3513 14.8165ZM38.5107 17.3812L38.4967 17.5141L38.4131 17.3081L38.5107 17.3812ZM36.8169 29.9121L37.3606 30.1912L37.5767 30.5367L37.4651 30.9553H36.8518L36.5242 30.4304L36.2732 30.2311L36.8169 29.9188V29.9121ZM36.8518 31.5333L37.6185 31.5732L39.145 31.0483L39.2217 31.3606L38.3155 32.4701H37.6952L36.4614 31.8788L36.3151 31.2609L36.8587 31.5333H36.8518ZM40.3996 27.3741L40.6924 26.8558L41.0548 26.6498L41.3476 26.7163V27.8923L40.9503 28.2444L40.4763 28.2777L40.4066 27.3741H40.3996ZM41.4173 29.9653L41.1594 29.766L41.0967 29.447L41.1664 29.168L41.4173 29.9653ZM41.027 31.4935L40.8457 31.0151H41.4661L42.0098 31.2875L42.191 31.7659L42.1213 32.0449L41.5427 31.9054L41.027 31.4868V31.4935ZM41.3267 33.9119L41.257 34.191L40.5599 33.294L41.1106 33.5664L41.3267 33.9119ZM41.961 26.7163L42.6162 26.5768L42.8671 26.7894L42.6092 27.1681L41.954 26.7163H41.961ZM44.9233 10.7038L44.7491 10.7304L44.9303 10.5244V10.7038H44.9233ZM42.3862 12.0858L42.5465 12.1987L42.2746 12.3781L42.3722 12.0858H42.3931H42.3862ZM38.211 39.7721L37.9949 39.5927L38.5386 39.2804L38.7198 39.4333L38.211 39.7788V39.7721ZM37.2909 45.526L37.1585 45.6854L36.9703 45.4263L37.2909 45.526ZM32.6626 41.473L32.5232 41.6856L32.5093 41.5395L32.6626 41.4797V41.473ZM33.0878 45.1074H33.1436L33.1854 45.3931L33.0321 45.4928L32.9693 45.32L33.0878 45.1074ZM32.342 48.4361L32.2026 48.8414L31.9098 48.8813L31.9308 48.0109L31.8401 47.7451L31.882 47.6986L32.349 48.4295L32.342 48.4361ZM31.8053 49.1869L32.2514 49.3863L31.882 49.466L31.7774 49.3863L31.7983 49.1869H31.8053ZM37.5976 39.3602L37.1654 39.8386L36.9493 39.4931L37.2072 39.1143L37.7858 39.2539L37.6046 39.3602H37.5976ZM34.6422 50.5556L34.8792 50.4493L34.9837 50.6154L34.9628 50.7018L34.6422 50.5556ZM39.2635 38.8685V38.2772L39.4796 38.038L40.0232 38.3104L40.2045 38.7954L40.1348 39.0745L39.8072 39.1476L39.2635 38.8685ZM34.2867 37.2473L33.3457 37.327L33.1296 36.9749L33.527 36.6294H34.1473L34.2588 36.8022L34.2937 37.2473H34.2867ZM33.3178 38.0513L33.4642 38.6758L33.3178 39.2273L32.7323 38.5031L32.586 37.8785L32.7602 37.7789L33.3109 38.0513H33.3178ZM30.0767 50.5158L30.0418 50.456L30.2091 50.5689L30.1115 50.6354L30.0836 50.5158H30.0767ZM30.4182 47.0741L30.3276 47.187H30.3137L30.4043 47.0076V47.0741H30.4182ZM43.8011 42.2105L44.1984 42.2504L44.4354 42.7952L43.7314 42.5162L43.8081 42.2172L43.8011 42.2105ZM50.0046 17.3413L50.1162 17.2882L50.2904 16.6304L50.5065 16.3912L50.7435 15.4743L51.0572 15.3149L51.2244 15.4411L51.2732 16.7301L50.1162 17.2948L50.0046 17.348V17.3413ZM51.1756 20.0588L50.8829 20.0987L51.1338 19.7798L51.3081 19.8927L51.1826 20.0588H51.1756ZM51.2314 14.1588L51.2523 14.079L51.566 13.8066L52.0539 14.0259L52.0957 14.3049L51.2244 14.1588H51.2314ZM52.8903 19.3811L52.8276 18.9625L53.1482 19.0622L53.1901 19.3479L52.8973 19.3877L52.8903 19.3811ZM52.8206 17.9526L52.3118 18.6037L52.0191 18.6436L52.1654 17.6137L53.3086 17.1619L53.197 17.4676L53.3922 17.7267L53.4758 18.2915L52.8206 17.9526ZM54.145 19.6402L54.1032 19.3545L54.4029 19.3147L54.7444 19.5538L54.7862 19.8329L54.152 19.6336L54.145 19.6402ZM57.888 19.3944L57.7625 19.5605L57.421 19.3213L57.9856 19.0954L57.888 19.401V19.3944ZM59.4912 19.029L59.3657 19.1884L59.3239 18.9094L59.77 18.8496L59.4981 19.0356L59.4912 19.029ZM60.0697 15.9195L59.9164 15.9394L59.8745 15.6604L60.0697 15.9195ZM59.073 16.3447L59.777 16.9693L60.4112 17.1686L59.6933 17.4144L59.0311 17.0822L58.7732 16.3979L59.066 16.358L59.073 16.3447ZM58.369 14.7169L58.4108 14.9959L58.6059 15.2551L58.3132 15.2949L57.9089 14.6371L58.369 14.7169ZM52.8624 14.3382L54.0265 14.0259L54.3471 14.1322L54.2844 14.7169L54.842 15.3614L55.8736 15.2152L56.2779 15.8796L56.7379 15.9593L57.5534 14.398L58.1459 16.1919L58.0623 17.647L57.7904 17.833L57.4489 17.5938L57.0028 16.6503L56.6822 16.544L55.8388 16.956L56.4103 17.74L56.5009 18.3047L55.2533 18.0456L54.7096 18.4177L54.8629 16.5175L54.6538 16.1188L53.3573 15.5806L52.6533 14.9627L52.8624 14.3581V14.3382ZM49.3982 9.36166L49.8304 8.87664L50.4786 8.73711L50.7365 8.94308L50.1162 9.52777L49.2797 9.7736L49.3913 9.35502L49.3982 9.36166ZM48.6245 6.98304L48.9521 7.49465L48.5479 7.25545L48.6176 6.98304H48.6245ZM47.0353 10.1257L46.7774 9.92642L46.4847 9.85998L46.7007 9.61414L47.1747 9.58092L47.0283 10.1324L47.0353 10.1257ZM46.5962 7.67404L46.8471 7.88001L46.4847 8.08598L46.2337 7.88001L46.5962 7.67404ZM43.4387 7.95974L43.6547 7.7139L44.5678 8.37168L45.3973 8.71053L45.1046 9.23542L44.1984 8.57765L43.6199 8.43812L43.4038 8.68396L43.4387 7.95309V7.95974ZM43.592 10.345L43.5572 10.4845L43.2644 10.4181L43.585 10.345H43.592ZM30.2509 16.8164L30.7388 17.0357L30.9758 17.5805L30.8504 17.7466L30.4322 17.946L30 17.142L30.2579 16.8164H30.2509ZM28.6199 17.0423L29.1775 16.6769L29.3448 16.7965L29.289 17.3878L28.7384 17.7533L28.1459 17.833L28.6269 17.0423H28.6199ZM27.0376 17.5539L27.2328 17.8131L27.1213 18.1187L26.4452 17.6403L26.4033 17.3613L27.0376 17.5606V17.5539ZM25.8806 17.8662L25.9224 18.1453L25.4554 18.0655L25.8806 17.8662ZM21.5033 18.916L21.8239 19.0223L21.8657 19.3014L21.3778 19.0821L21.5033 18.916ZM13.2296 20.2316L13.5223 20.1917L14.4633 21.3544L13.8708 21.4342L13.2156 21.0953L13.132 20.5305L13.2296 20.2249V20.2316ZM13.0901 25.1549L12.7695 25.0552L12.7277 24.7695L13.0901 25.1549L13.3202 24.6898L13.362 24.9689L13.0901 25.1549ZM13.7802 26.6432L13.5153 25.9588L14.0311 26.3243L14.073 26.61L13.7802 26.6498V26.6432ZM14.6097 28.1049L14.5888 27.9654L14.7072 27.7993L15.0488 28.0385L14.6097 28.0983V28.1049ZM14.6863 22.763L14.3239 22.3776L14.5957 22.1916L15.2718 22.6766L15.2928 22.8161L14.6794 22.763H14.6863ZM15.1812 20.0987L15.4112 19.6402L15.9549 19.2748L16.0804 19.1087L16.3383 19.793L15.4949 20.1983L15.1743 20.0987H15.1812ZM16.8262 26.7827L16.9308 26.4771L17.105 26.6033L16.8332 26.7827H16.8262ZM16.8123 23.7663L16.7844 22.6168L16.5544 22.072L15.9131 21.8727L16.2965 21.3876L16.9517 21.7265L17.0005 22.0056L17.1956 22.2647L17.1329 22.8494L18.0042 23.5935L16.8192 23.7596L16.8123 23.7663ZM18.6106 20.7697L18.6524 21.0488L18.039 20.989L17.6557 20.4641L17.7602 20.1651L18.3527 20.0787L19.0497 19.6934L19.3704 19.793L18.6176 20.7697H18.6106ZM19.5098 18.7698L19.2728 18.2184L20.0395 18.2582L20.0813 18.5373L19.5028 18.7632L19.5098 18.7698ZM20.7296 20.7564L20.6877 20.4707L20.9387 20.1518L21.3848 20.0854L21.6984 20.185L22.0957 19.8395L22.7161 19.8993L23.2179 20.2581L22.9879 20.7299L22.4164 20.9558L21.0014 20.5771L20.7296 20.7631V20.7564ZM21.7124 22.2049L21.2663 22.2647L21.6496 21.7863L21.9703 21.8793L21.7193 22.2049H21.7124ZM24.5841 22.2315L23.0088 24.7562L22.9182 24.1915L21.9772 23.0221L22.6115 22.2115L22.8206 21.6069L23.3295 21.9657L22.7649 23.2015L22.96 23.4606L23.2319 23.2746L24.4447 21.3744L24.3541 20.8096L25.2254 20.5438L25.5878 20.9226L24.5771 22.2248L24.5841 22.2315ZM25.6227 22.0853L25.8945 21.8992L26.2639 22.2846L25.6227 22.0853ZM27.0585 21.5936L26.7379 21.4939L26.3336 20.8295L26.4312 20.5239L26.7519 20.6302L27.1352 21.1485L27.0376 21.4541L27.0585 21.5936ZM28.1111 23.4673L27.9159 23.2015L27.8741 22.9225L28.4387 22.6965L28.7244 23.5204L28.1111 23.4673ZM28.4596 21.8262L28.0762 21.3013L28.7314 21.6401L28.7732 21.9192L28.4526 21.8195L28.4596 21.8262ZM29.0033 21.4607L29.2542 21.1352L29.7212 21.2149L29.8118 21.7796L29.6375 21.6601L29.0033 21.4607ZM29.9651 22.763L29.6654 22.8095L29.4493 22.4042L29.5539 22.0986L30.0627 22.464L29.9582 22.763H29.9651ZM30.3834 20.5505L29.6654 20.7897L28.1389 20.7166L27.5046 20.5173L26.9052 19.5937L28.7663 19.906L29.4424 19.3745L30.0558 19.4343L29.4145 18.225L30.2997 18.0988L30.5646 19.793L31.0246 18.8562L31.4289 18.5107L31.638 17.9061L32.1259 18.1253L32.7323 17.1752L33.3039 16.9493L33.6245 17.0556L34.0079 16.564L34.1334 16.5042L33.5479 18.7499L33.0809 18.4243L31.9656 19.0157L30.3903 20.5438L30.3834 20.5505ZM30.8852 23.7862L30.6901 23.5271L30.7528 22.9424L31.3174 22.7165L31.638 22.8228L31.5823 23.4075L31.178 23.753L30.8783 23.7928L30.8852 23.7862ZM24.9605 50.8812L25.0651 50.5756L25.2463 50.7085L25.1626 51.0274L24.9535 50.8812H24.9605ZM23.8313 49.4527L23.8731 49.7318L23.6013 49.9111L23.5595 49.6321L23.8313 49.4527ZM23.7337 50.7616L23.901 50.8746L24.0962 51.1337L23.3085 50.9543L23.7337 50.755V50.7616ZM24.2286 61.7644L23.9707 61.5651L24.3332 61.3591L24.2286 61.771V61.7644ZM30.244 59.9572L30.0279 59.6117L30.5716 59.8841L30.244 59.9572ZM40.8178 53.6917V53.6585L40.8318 53.6784L40.8178 53.6917ZM42.2467 49.0408L42.3374 48.7816L42.4837 48.8281L42.2467 49.0408ZM42.5116 47.599V47.4993L42.5953 47.5192L42.5116 47.599ZM43.5153 49.5524L43.2226 49.5922L43.2783 49.0075L43.5711 48.9677L43.5153 49.5524ZM43.7593 44.33L43.348 43.938L43.4526 43.5394L43.7941 43.5992L44.0311 44.1373L43.7593 44.3234V44.33ZM44.5609 46.5226L44.2333 46.4163L44.3378 46.1173L44.6585 46.217L44.5609 46.5226ZM46.1083 43.8516L46.5683 43.9314L46.4707 44.237L46.1501 44.1307L46.0037 44.1573L46.1083 43.8516ZM46.645 46.3698L46.3731 46.5558L45.8852 46.3366L45.6691 45.9313L46.2337 45.7054L46.7426 46.0708L46.638 46.3764L46.645 46.3698ZM47.6836 45.2137L47.6975 44.35L47.9972 44.3101L47.9345 44.8948L48.0042 45.32L47.6836 45.2137ZM49.3843 47.4262L49.0428 47.187L49.2937 46.8615L49.6073 46.9545L49.6561 47.2402L49.3843 47.4262ZM49.2937 45.8515L49.0149 46.0309L48.513 45.6722L48.7012 44.9214L49.7816 45.0542L49.3007 45.8449L49.2937 45.8515ZM55.2672 43.4198L55.1208 43.4397L55.079 43.1606L55.2672 43.4198ZM54.7305 45.805L55.0511 45.9047L54.9257 46.0708L54.6538 46.2502L54.7375 45.805H54.7305ZM54.2077 42.4165L54.2495 42.7022L53.6571 42.7886L54.2077 42.4231V42.4165ZM50.6738 42.0511L50.7714 41.7454L51.092 41.8451L51.1756 42.4099L50.6738 42.0511ZM53.3155 46.4362L52.9949 46.3432L53.2249 45.8781L54.0962 45.6057L53.9916 45.9113L53.3155 46.4429V46.4362ZM55.0441 48.7883L54.7723 48.9743L54.5423 48.4295L53.8801 48.0906L53.6083 48.27L54.7653 46.9545L55.3787 47.0076L55.6436 47.692L55.0581 48.7883H55.0441ZM55.7621 40.7488L56.0409 40.5694L56.3406 40.5296L56.2988 41.2604L55.6854 41.2006L55.7691 40.7488H55.7621ZM56.5218 43.6723L56.8146 43.6324L56.71 43.938L56.1385 44.1639L56.5218 43.6789V43.6723ZM56.4382 45.134L56.2709 45.0144L57.0376 45.0542L57.8392 45.3665L57.5813 45.6987L56.6264 45.3997L56.4312 45.1406L56.4382 45.134ZM57.2049 48.0508L57.4559 47.7186L57.6441 47.9843L57.2049 48.0441V48.0508ZM57.7835 46.9611L57.198 47.0409L57.1283 46.6156L58.1459 46.3233L57.7904 46.9545L57.7835 46.9611ZM58.5084 44.8416L58.362 44.8616L58.4596 44.5626L58.7802 44.6556L58.5014 44.8416H58.5084ZM58.4247 43.267L57.7416 42.7819L57.8462 42.4763L58.2923 42.4165L58.822 42.9148L58.8638 43.2005L58.4177 43.2603L58.4247 43.267ZM59.6724 51.3131L59.4354 50.7616L59.7839 51.0008L59.6794 51.3064L59.6724 51.3131ZM61.2268 45.7519L61.0804 45.7718L61.3313 45.4463L61.2337 45.7519H61.2268ZM61.0525 44.6224L61.3871 44.8616L59.5121 45.4197L59.0451 45.3399L59.7212 44.8084L60.5855 43.5394L60.474 42.8351L61.4707 43.4198L60.948 43.9247L61.0595 44.629L61.0525 44.6224ZM61.7983 41.6325L61.3592 41.6923L60.46 40.8086H61.5195L62.1538 41.0079L62.1747 41.1475L61.7914 41.6325H61.7983ZM62.8648 42.6358L62.7323 42.7952L62.3699 42.4099L62.2793 41.8451L62.8927 41.9049L62.8578 42.6358H62.8648ZM62.809 39.327L62.5302 39.5063L62.2932 38.9615L62.7184 38.7556L63.039 38.8552L62.809 39.3203V39.327ZM64.7886 42.3633L64.5167 42.5427L64.3007 42.1374L64.4052 41.8318L64.8931 42.0511L64.7886 42.3567V42.3633ZM67.5906 38.9416L67.1445 39.008L67.0748 38.5828L67.5209 38.523L67.7091 38.7821L67.5906 38.9482V38.9416ZM69.605 37.3536L69.0962 36.9948L69.2007 36.6892L69.4935 36.6493L69.7235 37.1875L69.605 37.3536Z" fill="white"/>
<path d="M39.6952 36.0317L39.8067 35.6131L39.5837 35.2676L39.0748 35.4403L38.7891 35.9652L39.3676 36.1047L39.6952 36.0317Z" fill="white"/>
</g>
<defs>
<clipPath id="clip0_6909_19883">
<rect width="75" height="67" fill="white"/>
</clipPath>
</defs>
</svg>
