<svg width="460" height="411" viewBox="0 0 460 411" fill="none" xmlns="http://www.w3.org/2000/svg">
<g clip-path="url(#clip0_7171_17455)">
<path d="M457.744 271.813L456.544 270.223L451.446 237.332L452.088 235.457L449.389 224.33L442.877 218.135L436.108 216.423L417.642 217.279L409.844 221.069L404.875 219.113L380.282 222.577L378.611 223.719L356.632 225.92L353.119 227.305L347.678 234.275L344.936 234.642L344.25 230.321L328.398 229.873L312.16 233.052L310.19 232.441L295.666 234.519L288.639 237.25L286.154 239.37L281.998 236.435L276.729 237.169L279.042 228.324L278.528 219.195L280.97 217.075L282.084 212.796L281.441 211.777L285.854 198.367L286.283 189.441L293.823 167.758L293.395 165.843L296.051 157.284L299.393 156.958L301.364 157.569L315.802 154.634L324.671 151.618L347.421 148.399L349.392 149.01L362.116 147.217L364.087 147.828L375.012 146.279L376.683 145.179L391.507 144.853L394.892 142.611L402.175 141.592L404.103 142.203L421.369 139.758L430.881 134.908L434.18 126.471L430.752 110.127L431.866 99.3671L428.953 92.6829L427.625 84.0015L428.267 82.1266L426.639 71.7742L424.154 67.6984L424.626 58.7725L418.328 48.1755L413.358 46.2192L395.278 49.6836L389.579 48.7054L376.169 52.3736L365.287 53.9224L363.316 53.311L352.434 54.8598L350.506 54.2892L330.455 57.1015L328.784 58.2019H321.629V57.9981L323.343 51.1916L324.671 49.6836L328.87 33.5843L327.756 23.3949L320.815 17.2812L303.634 14.1021L293.609 9.00744H285.983L277.028 6.9288L275.486 5.66531L264.775 3.13834L259.891 3.79046L251.365 0L238.683 1.54879L234.87 5.17622L231.357 22.3759L228.272 27.0631L226.73 40.2278L224.073 50.3764L222.702 51.8845L220.046 62.0331L218.718 63.5412L216.447 72.304L182.9 77.0319L181.23 78.1731L146.655 83.0233L136.886 86.1616L122.191 87.3436L121.162 86.6507L93.8709 90.482L93.0569 91.4601L77.6331 93.661L75.9622 94.8023L65.9796 96.2288L37.1885 96.7179L13.5387 100.06L5.99814 105.562L0.128532 116.078L0 121.417L1.0711 122.11L2.14219 129.039L3.29898 130.628L4.84136 146.32L4.07017 147.339L5.69823 157.691L8.61162 164.376L10.0255 179.211L13.1959 187.607L18.6799 193.028L25.5778 195.596L47.2568 191.683L49.2276 192.254L55.4828 190.542L58.8675 188.3L63.7945 190.216L98.4124 185.325L100.083 184.225L109.209 182.961L111.137 183.532L118.378 182.513L119.192 181.535L141.299 180.149L146.526 177.663L181.101 172.812L188.642 173.505L191.169 173.138L190.698 175.013L189.413 176.521L187.613 183.328L186.285 184.795L177.245 219.602L177.716 221.518L169.447 253.349L164.221 254.776L158.522 253.798L138.471 256.61L136.8 257.751L118.592 260.319L116.621 259.667L72.9631 265.821L52.3124 270.508L50.3415 269.938L38.7737 273.321L33.0755 272.383L25.8349 285.793L29.5194 297.694L31.6188 316.85L30.9333 318.725L36.2459 340.978L35.132 345.584L36.4601 354.225L42.244 361.357L50.9842 363.64L62.3378 364.699L84.8308 359.768L90.1435 358.137L94.9849 359.238L106.981 358.423L120.477 355.651L131.873 351.372L134.915 352.717L142.156 352.554L141.042 355.284L135.301 377.375L137.786 386.056L145.841 395.145L150.982 397.265L152.096 396.613L159.251 398.284L161.264 397.876L177.117 402.482L177.802 403.541L188.513 406.068H196.139L211.135 410.47L220.475 410.878L227.844 408.106L232.942 403.012L237.355 382.429L238.64 380.921L239.326 374.766L238.426 370.935L242.196 367.349L249.994 337.351L280.67 333.031L282.341 331.889L306.891 328.425L312.503 328.547L314.174 327.406L326.256 327.488L328.741 325.368L338.724 323.942L340.694 324.594L353.419 322.801L355.09 321.659L363.273 320.477L365.244 321.089L375.227 319.703L379.511 317.298L381.61 318.806L399.819 316.239L405.903 313.589L413.443 314.323L423.426 312.937L425.097 311.796L434.223 310.532L436.193 311.144L448.918 309.35L456.587 304.704L460.315 298.876L461.214 292.558L457.958 271.772L457.744 271.813ZM399.262 117.3L401.104 117.056L398.791 120.031L399.262 117.3ZM390.093 106.214L392.193 107.682L391.55 109.516L389.451 108.049L390.093 106.174V106.214ZM388.637 126.756L392.536 127.979L394.892 131.199L394.292 133.074L389.322 131.117L385.895 127.164L388.637 126.797V126.756ZM386.495 136.783L383.753 137.149L383.495 135.438L385.295 135.193L386.495 136.783ZM383.11 91.2563L385.081 91.9085L383.281 98.3482L383.196 103.647L379.382 103.28L381.182 96.8401L380.625 93.3757L378.654 92.8051L383.067 91.2563H383.11ZM379.211 113.918L378.954 112.206L380.882 112.817L382.21 115.303L378.568 115.792L379.211 113.918ZM17.2661 112.776L17.8659 110.942L19.9652 112.41L17.2661 112.776ZM43.3151 142.733L42.1155 141.144L43.6579 139.147L43.3151 142.733ZM74.5055 325.001L74.1199 322.393L76.2192 323.86L74.5483 325.001H74.5055ZM90.7862 304.093L92.757 304.704L93.014 306.416L90.7862 304.052V304.093ZM89.9721 298.917L88.2155 293.822L89.0296 292.844L92.7998 293.17L95.5418 298.957L89.9721 298.876V298.917ZM99.3978 305.56L101.197 305.315L101.454 307.027L99.9119 308.984L97.0414 308.535L99.3978 305.56ZM106.21 319.621L100.126 322.23L98.1553 321.659L101.369 318.521L106.081 318.765L108.181 320.233L106.21 319.621ZM109.98 289.909L111.908 290.52L111.266 292.355L109.295 291.784L109.98 289.909ZM111.266 340.163L110.88 337.555L112.851 338.166L114.05 339.756L111.308 340.122L111.266 340.163ZM135.515 316.402L134.701 317.38L132.473 315.057L133.759 311.348L135.601 311.103L136.8 312.693L135.515 316.402ZM137.357 298.427L135.558 298.672L135.001 295.208L137.7 294.841L137.957 296.593L137.357 298.427ZM164.006 302.666L162.164 302.911L163.963 302.666H164.006ZM197.896 248.907L200.552 245.932L202.566 245.483L204.108 246.747L200.509 248.825L198.667 249.07L197.853 248.866L197.896 248.907ZM213.105 193.925L217.133 196.656L212.677 199.223L215.805 201.75L217.775 201.302L218.461 202.362L217.133 207.456L219.618 208.964L224.073 206.437L224.716 207.456L223.388 208.964L225.402 212.143L230.757 213.407L238.126 210.635L239.883 207.456L240.397 212.959L250.38 210.839L253.079 211.491L253.593 220.58L242.196 227.835L241.297 231.259L229 227.468L224.33 223.678L226.558 222.414L235.041 222.618L234.784 219.887L232.599 217.523L226.344 219.684L224.588 215.649L225.016 213.937L223.217 213.529L219.918 215.445L220.817 222.863L226.258 234.968L226.044 239.451L222.531 246.584L216.19 246.013L218.718 242.263L217.133 237.372L218.932 234.193L210.235 234.846L211.563 229.751L222.274 232.278L217.775 227.591L216.661 224.615L213.534 222.088L215.976 219.928L211.734 214.467V210.839L213.063 209.372L211.049 206.193L210.792 203.462L212.805 199.427L214.176 197.919L213.234 194.129L213.105 193.925ZM199.695 137.476L196.011 137.965L195.068 125.697L196.996 120.113L199.095 121.58L202.137 129.12L203.68 128.346L203.423 129.365L202.052 130.873L200.252 137.802L199.695 137.435V137.476ZM205.993 117.137L206.293 118.36L204.879 123.781L201.623 120.357L204.879 117.26L205.95 117.097L205.993 117.137ZM247.295 201.057L246.609 199.998L239.497 198.327L248.58 192.376L246.824 199.183L247.295 201.098V201.057ZM278.657 101.527L276.3 104.177L274.501 103.769L274.929 102.057L276.557 101.12L278.657 101.527ZM248.452 111.635L248.709 111.961L245.967 112.369L245.71 110.698L248.452 111.676V111.635ZM247.852 118.279L252.308 114.162L252.736 119.42L252.05 121.213L246.824 121.091L247.809 118.319L247.852 118.279ZM265.161 104.34L264.304 104.054L265.161 104.258V104.34ZM245.11 118.686L244.253 119.257L243.996 117.178L245.067 118.686H245.11ZM234.099 175.421L236.07 174.973L235.427 177.54L233.628 177.133L234.056 175.462L234.099 175.421ZM234.999 182.798L237.226 181.535L241.211 180.679L241.682 182.594L238.597 187.281L235.898 186.629L234.57 184.51L235.041 182.798H234.999ZM238.983 171.182L237.184 170.774L237.826 168.207L247.895 176.888L248.152 179.66L245.024 180.76L241.939 178.192L239.026 171.223L238.983 171.182ZM271.844 121.335L271.416 122.925L270.088 120.806L271.159 120.154L271.801 121.172V121.335H271.844ZM271.801 110.372H271.716L271.587 109.679L271.93 109.842L271.801 110.372ZM260.319 90.8895L259.12 89.3L261.733 88.0365L260.319 90.8895ZM236.712 106.622L236.627 107.437L236.113 106.174L236.712 106.622ZM226.301 183.491L229.643 185.203L230.971 187.322L230.286 189.89H226.516L224.502 186.67L222.959 185.447L226.301 183.532V183.491ZM226.516 193.436L231.228 193.68L240.611 190.46L241.082 192.376L235.513 199.183H231.7L224.116 195.555L223.217 191.765L226.558 193.436H226.516ZM248.323 167.921L250.122 164.742L252.35 163.479L254.15 163.886V171.101L251.708 173.261L248.794 173.464L248.366 167.921H248.323ZM254.578 183.817L252.993 182.594L252.607 180.638L253.036 178.926L254.578 183.817ZM252.179 193.191L251.065 190.257H254.878L258.22 191.928L259.334 194.862L258.905 196.574L255.349 195.718L252.179 193.15V193.191ZM254.021 208.027L253.593 209.739L249.308 204.237L252.693 205.908L254.021 208.027ZM257.92 163.886L261.947 163.031L263.49 164.335L261.905 166.658L257.877 163.886H257.92ZM276.129 65.6606L275.058 65.8236L276.172 64.5601V65.6606H276.129ZM260.534 74.1381L261.519 74.831L259.848 75.9315L260.448 74.1381H260.576H260.534ZM234.87 243.975L233.542 242.875L236.884 240.959L237.998 241.897L234.87 244.016V243.975ZM229.215 279.271L228.401 280.25L227.244 278.66L229.215 279.271ZM200.766 254.409L199.909 255.713L199.824 254.817L200.766 254.45V254.409ZM203.38 276.704H203.723L203.98 278.456L203.037 279.068L202.651 278.008L203.38 276.704ZM198.796 297.123L197.939 299.609L196.139 299.854L196.268 294.515L195.711 292.884L195.968 292.599L198.838 297.082L198.796 297.123ZM195.497 301.729L198.239 302.952L195.968 303.441L195.325 302.952L195.454 301.729H195.497ZM231.1 241.448L228.443 244.383L227.115 242.263L228.701 239.94L232.257 240.796L231.143 241.448H231.1ZM212.934 310.125L214.391 309.473L215.033 310.492L214.905 311.022L212.934 310.125ZM241.34 238.432V234.805L242.668 233.337L246.009 235.009L247.123 237.984L246.695 239.696L244.681 240.144L241.34 238.432ZM210.749 228.487L204.965 228.976L203.637 226.816L206.079 224.697H209.892L210.578 225.757L210.792 228.487H210.749ZM204.794 233.419L205.693 237.25L204.794 240.633L201.195 236.19L200.295 232.359L201.366 231.748L204.751 233.419H204.794ZM184.871 309.88L184.657 309.514L185.685 310.206L185.086 310.614L184.914 309.88H184.871ZM186.971 288.768L186.414 289.461H186.328L186.885 288.36V288.768H186.971ZM269.231 258.933L271.673 259.178L273.13 262.52L268.802 260.808L269.274 258.974L269.231 258.933ZM307.362 106.377L308.047 106.051L309.118 102.016L310.447 100.549L311.903 94.9245L313.831 93.9464L314.86 94.7207L315.159 102.628L308.047 106.092L307.362 106.418V106.377ZM314.56 123.047L312.76 123.292L314.303 121.335L315.374 122.028L314.603 123.047H314.56ZM314.902 86.8545L315.031 86.3654L316.959 84.6944L319.958 86.0394L320.215 87.7512L314.86 86.8545H314.902ZM325.099 118.89L324.714 116.322L326.684 116.934L326.942 118.686L325.142 118.931L325.099 118.89ZM324.671 110.127L321.543 114.121L319.744 114.366L320.643 108.049L327.67 105.277L326.984 107.152L328.184 108.741L328.698 112.206L324.671 110.127ZM332.811 120.48L332.554 118.727L334.396 118.482L336.496 119.95L336.753 121.662L332.854 120.439L332.811 120.48ZM355.818 118.972L355.047 119.99L352.948 118.523L356.418 117.137L355.818 119.012V118.972ZM365.672 116.73L364.901 117.708L364.644 115.996L367.386 115.629L365.715 116.771L365.672 116.73ZM369.228 97.6553L368.286 97.7776L368.029 96.0658L369.228 97.6553ZM363.102 100.264L367.429 104.095L371.328 105.318L366.915 106.826L362.845 104.788L361.259 100.59L363.059 100.345L363.102 100.264ZM358.775 90.2782L359.032 91.99L360.231 93.5795L358.432 93.8241L355.947 89.7891L358.775 90.2782ZM324.928 87.955L332.083 86.0394L334.054 86.6915L333.668 90.2782L337.096 94.2317L343.436 93.335L345.921 97.4108L348.749 97.8998L353.762 88.3218L357.404 99.3264L356.889 108.252L355.219 109.394L353.119 107.926L350.377 102.139L348.406 101.487L343.222 104.013L346.735 108.823L347.292 112.287L339.623 110.698L336.281 112.98L337.224 101.323L335.939 98.878L327.97 95.5767L323.643 91.7862L324.928 88.0773V87.955ZM303.634 57.4275L306.291 54.4522L310.275 53.5963L311.861 54.8598L308.047 58.4465L302.906 59.9545L303.592 57.3868L303.634 57.4275ZM298.879 42.8363L300.892 45.9746L298.408 44.5073L298.836 42.8363H298.879ZM289.11 62.1146L287.525 60.8919L285.726 60.4843L287.054 58.9763L289.967 58.7725L289.068 62.1554L289.11 62.1146ZM286.411 47.0751L287.954 48.3386L285.726 49.602L284.183 48.3386L286.411 47.0751ZM267.003 48.8277L268.331 47.3196L273.944 51.3546L279.042 53.4333L277.243 56.6531L271.673 52.6181L268.117 51.7622L266.789 53.2702L267.003 48.7869V48.8277ZM267.946 63.4596L267.731 64.3156L265.932 63.908L267.903 63.4596H267.946ZM185.942 103.158L188.941 104.503L190.398 107.845L189.627 108.864L187.056 110.086L184.4 105.155L185.985 103.158H185.942ZM175.917 104.543L179.344 102.302L180.373 103.035L180.03 106.663L176.645 108.904L173.004 109.394L175.96 104.543H175.917ZM166.191 107.682L167.391 109.271L166.705 111.146L162.55 108.212L162.293 106.5L166.191 107.722V107.682ZM159.079 109.597L159.336 111.309L156.466 110.82L159.079 109.597ZM132.173 116.037L134.144 116.689L134.401 118.401L131.402 117.056L132.173 116.037ZM81.3177 124.107L83.1171 123.862L88.901 130.995L85.2593 131.484L81.232 129.406L80.7178 125.941L81.3177 124.066V124.107ZM80.4608 154.308L78.49 153.697L78.2329 151.944L80.4608 154.308L81.8746 151.455L82.1317 153.167L80.4608 154.308ZM84.7023 163.438L83.0743 159.24L86.2447 161.482L86.5018 163.234L84.7023 163.479V163.438ZM89.8007 172.405L89.6722 171.549L90.4006 170.53L92.4999 171.997L89.8007 172.364V172.405ZM90.272 139.636L88.0441 137.272L89.7151 136.13L93.8709 139.106L93.9994 139.962L90.2292 139.636H90.272ZM93.3139 123.292L94.7278 120.48L98.0696 118.238L98.8408 117.219L100.426 121.417L95.2419 123.903L93.2711 123.292H93.3139ZM103.425 164.294L104.068 162.419L105.139 163.194L103.468 164.294H103.425ZM103.339 145.79L103.168 138.739L101.754 135.397L97.8125 134.174L100.169 131.199L104.196 133.277L104.496 134.989L105.696 136.579L105.31 140.166L110.666 144.73L103.382 145.749L103.339 145.79ZM114.393 127.408L114.65 129.12L110.88 128.753L108.524 125.534L109.166 123.699L112.808 123.17L117.092 120.806L119.063 121.417L114.436 127.408H114.393ZM119.92 115.14L118.463 111.757L123.176 112.002L123.433 113.714L119.877 115.1L119.92 115.14ZM127.418 127.327L127.161 125.574L128.703 123.618L131.445 123.21L133.373 123.822L135.815 121.702L139.628 122.069L142.713 124.27L141.299 127.164L137.786 128.55L129.089 126.226L127.418 127.368V127.327ZM133.459 136.212L130.717 136.579L133.073 133.644L135.044 134.215L133.501 136.212H133.459ZM151.11 136.375L141.428 151.863L140.871 148.399L135.087 141.225L138.986 136.253L140.271 132.544L143.398 134.745L139.928 142.326L141.128 143.915L142.799 142.774L150.253 131.117L149.696 127.653L155.052 126.023L157.28 128.346L151.067 136.334L151.11 136.375ZM157.494 135.478L159.165 134.337L161.436 136.701L157.494 135.478ZM166.32 132.462L164.349 131.851L161.864 127.775L162.464 125.9L164.435 126.552L166.791 129.732L166.191 131.606L166.32 132.462ZM172.789 143.956L171.59 142.326L171.333 140.614L174.803 139.228L176.56 144.282L172.789 143.956ZM174.932 133.889L172.575 130.669L176.602 132.748L176.859 134.459L174.889 133.848L174.932 133.889ZM178.273 131.647L179.816 129.65L182.686 130.139L183.243 133.604L182.172 132.87L178.273 131.647ZM184.186 139.636L182.344 139.921L181.015 137.435L181.658 135.56L184.786 137.802L184.143 139.636H184.186ZM186.756 126.063L182.344 127.531L172.961 127.082L169.062 125.86L165.377 120.194L176.817 122.11L180.973 118.849L184.743 119.216L180.801 111.798L186.242 111.024L187.87 121.417L190.698 115.67L193.183 113.551L194.468 109.842L197.467 111.187L201.195 105.358L204.708 103.973L206.679 104.625L209.035 101.609L209.806 101.242L206.208 115.018L203.337 113.021L196.482 116.648L186.799 126.023L186.756 126.063ZM189.841 145.912L188.642 144.323L189.027 140.736L192.497 139.35L194.468 140.002L194.126 143.589L191.641 145.709L189.798 145.953L189.841 145.912ZM153.424 312.122L154.067 310.247L155.18 311.062L154.666 313.019L153.381 312.122H153.424ZM146.483 303.359L146.74 305.071L145.069 306.171L144.812 304.46L146.483 303.359ZM145.883 311.388L146.912 312.081L148.111 313.671L143.27 312.57L145.883 311.348V311.388ZM148.925 378.883L147.34 377.66L149.568 376.397L148.925 378.924V378.883ZM185.9 367.797L184.571 365.678L187.913 367.349L185.9 367.797ZM250.894 329.362V329.159L250.979 329.281L250.894 329.362ZM259.677 300.832L260.234 299.243L261.133 299.528L259.677 300.832ZM261.305 291.988V291.376L261.819 291.499L261.305 291.988ZM267.474 303.97L265.675 304.215L266.018 300.628L267.817 300.384L267.474 303.97ZM268.974 271.935L266.446 269.53L267.089 267.085L269.188 267.452L270.645 270.753L268.974 271.894V271.935ZM273.901 285.385L271.887 284.733L272.53 282.899L274.501 283.51L273.901 285.385ZM283.412 269L286.24 269.49L285.64 271.364L283.669 270.712L282.77 270.875L283.412 269ZM286.711 284.448L285.04 285.589L282.041 284.244L280.713 281.758L284.183 280.372L287.311 282.613L286.668 284.488L286.711 284.448ZM293.095 277.356L293.181 272.057L295.023 271.813L294.637 275.399L295.066 278.008L293.095 277.356ZM303.549 290.928L301.449 289.461L302.992 287.464L304.92 288.034L305.22 289.787L303.549 290.928ZM302.992 281.268L301.278 282.369L298.193 280.168L299.35 275.562L305.991 276.378L303.035 281.228L302.992 281.268ZM339.709 266.351L338.809 266.473L338.552 264.762L339.709 266.351ZM336.41 280.983L338.381 281.595L337.61 282.613L335.939 283.714L336.453 280.983H336.41ZM333.197 260.197L333.454 261.949L329.812 262.479L333.197 260.238V260.197ZM311.475 257.955L312.075 256.08L314.046 256.692L314.56 260.156L311.475 257.955ZM327.713 284.855L325.742 284.285L327.156 281.431L332.511 279.76L331.869 281.635L327.713 284.896V284.855ZM338.338 299.283L336.667 300.425L335.253 297.082L331.183 295.004L329.512 296.104L336.624 288.034L340.395 288.36L342.023 292.558L338.424 299.283H338.338ZM342.751 249.967L344.465 248.866L346.307 248.622L346.05 253.105L342.28 252.738L342.794 249.967H342.751ZM347.421 267.9L349.22 267.655L348.578 269.53L345.065 270.916L347.421 267.941V267.9ZM346.907 276.867L345.879 276.133L350.591 276.378L355.518 278.293L353.933 280.331L348.064 278.497L346.864 276.907L346.907 276.867ZM351.62 294.759L353.162 292.721L354.319 294.352L351.62 294.719V294.759ZM355.176 288.075L351.577 288.564L351.148 285.956L357.404 284.162L355.219 288.034L355.176 288.075ZM359.631 275.073L358.732 275.196L359.332 273.361L361.302 273.932L359.589 275.073H359.631ZM359.117 265.414L354.919 262.438L355.561 260.564L358.303 260.197L361.559 263.254L361.816 265.006L359.074 265.373L359.117 265.414ZM366.786 314.771L365.33 311.388L367.472 312.856L366.829 314.73L366.786 314.771ZM376.341 280.657L375.441 280.779L376.983 278.782L376.383 280.657H376.341ZM375.269 273.728L377.326 275.196L365.801 278.619L362.93 278.13L367.086 274.87L372.399 267.085L371.713 262.764L377.84 266.351L374.627 269.449L375.312 273.769L375.269 273.728ZM379.854 255.387L377.155 255.754L371.628 250.333H378.14L382.039 251.556L382.167 252.412L379.811 255.387H379.854ZM386.409 261.542L385.595 262.52L383.367 260.156L382.81 256.692L386.58 257.058L386.366 261.542H386.409ZM386.066 241.244L384.352 242.345L382.896 239.003L385.509 237.739L387.48 238.351L386.066 241.204V241.244ZM398.234 259.871L396.563 260.971L395.235 258.485L395.877 256.61L398.876 257.955L398.234 259.83V259.871ZM415.457 238.88L412.715 239.288L412.287 236.68L415.029 236.313L416.185 237.902L415.457 238.921V238.88ZM427.839 229.139L424.711 226.939L425.354 225.064L427.153 224.819L428.567 228.12L427.839 229.139Z" fill="#CBB8D9"/>
<path d="M243.995 221.029L244.681 218.461L243.31 216.342L240.182 217.401L238.426 220.621L241.982 221.477L243.995 221.029Z" fill="#CBB8D9"/>
</g>
<g clip-path="url(#clip1_7171_17455)">
<path d="M201.697 228.986L216.231 216.191L224.333 217.533L231.437 229.31L244.601 235.372L251.357 266.699L239.865 269.73L239.54 263.668L227.026 260.961L223.312 255.593L219.272 257.606L217.577 247.842L210.473 241.11L212.841 238.079" fill="#CBB8D9"/>
<path d="M282.164 211.772C281.583 211.194 280.701 210.87 278.589 210.083C276.778 209.412 274.038 208.417 272.924 207.538C270.324 205.456 255.28 199.649 250.799 199.649C248.384 199.649 246.063 199.88 244.507 200.065L241.768 187.525C241.628 186.9 241.211 186.368 240.63 186.09C240.05 185.813 239.376 185.836 238.796 186.113L228.604 191.296L225.679 189.931C224.913 189.561 224.007 189.7 223.38 190.278L219.318 193.98L216.694 192.43V185.049C216.694 184.378 216.369 183.754 215.812 183.36C215.255 182.967 214.558 182.874 213.908 183.083L203.484 186.692C202.927 186.877 202.486 187.293 202.254 187.826L198.307 196.941L190.088 200.019C189.555 200.227 189.113 200.62 188.904 201.152L184.586 211.194L178.643 212.327C177.923 212.466 177.343 212.952 177.087 213.623L174.139 221.305C173.767 222.276 174.162 223.364 175.068 223.873L182.938 228.222L185.886 231.369C186.142 231.647 186.49 231.855 186.861 231.947L195.242 234.215C196.032 234.423 196.891 234.169 197.402 233.521L198.353 232.364L203.925 235.325L211.563 241.272L210.565 242.822C210.008 243.678 210.17 244.812 210.913 245.483L218.018 251.938L218.853 260.614C218.923 261.285 219.294 261.863 219.875 262.21C220.455 262.558 221.152 262.581 221.779 262.326L224.123 261.308L228.767 265.75C229.115 266.074 229.556 266.283 230.044 266.329L239.493 267.092L240.607 274.265C240.7 274.889 241.094 275.445 241.628 275.769C241.953 275.954 242.302 276.046 242.673 276.046C242.929 276.046 243.207 276 243.439 275.907L254.769 271.396C255.628 271.049 256.139 270.216 256.069 269.29L255.535 262.673L261.548 261.077C262.012 260.961 262.407 260.683 262.685 260.29L269.024 251.706C269.279 251.382 269.418 250.966 269.418 250.573L270.045 236.274L281.398 228.731C281.932 228.384 282.257 227.806 282.326 227.181C283.534 213.114 282.907 212.489 282.164 211.772ZM225.145 194.281L227.722 195.484C228.302 195.762 228.976 195.738 229.556 195.461L238.239 191.042L240.816 202.841C241.048 203.929 242.116 204.623 243.23 204.438C243.277 204.438 246.968 203.79 250.799 203.79C253.167 203.79 260.341 206.242 265.355 208.348L264.032 209.829L257.601 214.549C257.09 214.919 256.789 215.497 256.765 216.122L256.487 221.258L234.942 227.922L228.117 217.51C227.792 217.024 227.281 216.677 226.7 216.585L218.412 215.289L215.975 205.363L222.847 196.456C222.847 196.456 222.847 196.409 222.893 196.386L225.191 194.281H225.145ZM196.194 228.384L195.01 229.819L188.51 228.061L185.747 225.099C185.608 224.937 185.422 224.798 185.236 224.706L178.666 221.073L180.547 216.168L186.42 215.034C187.094 214.896 187.674 214.456 187.953 213.808L192.364 203.559L200.582 200.481C201.116 200.273 201.534 199.88 201.766 199.348L205.69 190.255L212.469 187.918V193.564C212.469 194.304 212.864 194.975 213.49 195.345L216.81 197.312L211.981 203.582C211.587 204.091 211.447 204.739 211.61 205.34L214.698 217.88L201.627 229.333L198.771 227.829C197.889 227.366 196.798 227.575 196.171 228.338L196.194 228.384ZM244.321 271.026L243.37 264.825C243.23 263.876 242.441 263.136 241.466 263.067L231.111 262.234L225.981 257.329C225.377 256.75 224.472 256.588 223.706 256.912L222.73 257.329L222.104 250.711C222.057 250.202 221.825 249.717 221.43 249.37L215.046 243.562L216.137 241.873C216.717 240.971 216.508 239.768 215.673 239.097L206.386 231.878C206.386 231.878 206.201 231.739 206.084 231.67L205.643 231.438L218.482 220.194C218.691 220.009 218.83 219.801 218.946 219.569L225.145 220.541L232.342 231.508C232.574 231.855 232.922 232.086 233.294 232.248C233.456 232.41 233.619 232.572 233.828 232.665L246.922 239.398L250.822 263.622C250.915 264.154 251.17 264.594 251.565 264.894L251.82 268.018L244.368 270.979L244.321 271.026ZM278.24 225.816L266.841 233.382C266.284 233.752 265.936 234.354 265.913 235.025L265.262 249.74L259.737 257.213L254.188 258.671L250.822 237.732C250.729 237.084 250.311 236.505 249.708 236.205L239.4 230.906L259.087 224.821C259.923 224.567 260.503 223.803 260.55 222.947L260.851 217.348L266.655 213.091C266.655 213.091 266.864 212.906 266.957 212.813L269.302 210.222C269.743 210.453 270.091 210.662 270.3 210.824C271.926 212.119 274.804 213.184 277.126 214.016C277.66 214.202 278.31 214.456 278.774 214.641C278.844 216.562 278.565 221.443 278.194 225.863L278.24 225.816Z" fill="#513893"/>
<path d="M178.644 182.25C178.783 182.041 193.804 161.334 226.121 160.871C226.446 160.871 226.748 160.871 227.073 160.871C258.6 160.871 274.341 183.962 274.504 184.193C274.898 184.795 275.571 185.119 276.245 185.119C276.639 185.119 277.034 185.003 277.406 184.772C278.357 184.147 278.636 182.851 277.986 181.879C277.289 180.838 260.922 156.683 227.096 156.683C226.748 156.683 226.4 156.683 226.051 156.683C191.622 157.192 175.881 178.918 175.208 179.843C174.535 180.792 174.767 182.088 175.719 182.735C176.67 183.406 177.971 183.175 178.621 182.226L178.644 182.25Z" fill="#513893"/>
<path d="M185.352 128.202H203.508C207.594 136.508 216.648 142.315 227.165 142.315C237.682 142.315 246.736 136.508 250.799 128.202H265.913C266.702 128.202 267.468 127.809 267.909 127.138C268.35 126.467 268.443 125.634 268.141 124.893L252.679 87.7126C250.52 76.5143 239.91 68 227.142 68C220.525 68 214.512 70.3137 209.915 74.085C209.335 74.1544 208.754 74.4089 208.336 74.8716C208.058 75.1956 207.919 75.5889 207.826 75.9822C205.597 78.2727 203.833 80.9566 202.695 83.9181L183.193 124.778C182.845 125.518 182.892 126.374 183.333 127.068C183.774 127.762 184.54 128.179 185.352 128.179V128.202ZM253.12 118.369V101.248L262.337 123.436H252.517C252.888 121.793 253.12 120.104 253.12 118.369ZM227.165 72.7662C237.31 72.7662 245.784 79.2676 247.85 87.8977C247.85 88.2447 247.85 88.5918 248.013 88.9388L248.059 89.0776C248.106 89.3321 248.152 89.5867 248.175 89.8412C234.873 90.9749 220.177 81.1417 214.349 76.7226C217.902 74.2701 222.336 72.7893 227.142 72.7893L227.165 72.7662ZM205.992 91.9466C205.992 89.8643 206.363 87.8745 207.036 86.0236L207.269 85.5377C207.269 85.5377 207.292 85.3758 207.338 85.3063C208.151 83.3628 209.265 81.5582 210.681 79.9617C216.091 84.1958 231.112 94.7693 245.993 94.7693C246.759 94.7693 247.549 94.723 248.315 94.6768V118.392C248.315 128.966 238.819 137.572 227.165 137.572C218.412 137.572 210.913 132.737 207.686 125.888C207.686 125.888 207.686 125.888 207.686 125.865C207.686 125.194 207.408 124.616 206.99 124.176C206.363 122.348 206.015 120.428 206.015 118.415V91.9929L205.992 91.9466ZM201.186 98.2398V118.369C201.186 120.104 201.395 121.793 201.79 123.436H189.137L201.186 98.2398Z" fill="#513893"/>
</g>
<defs>
<clipPath id="clip0_7171_17455">
<rect width="461" height="411" fill="white"/>
</clipPath>
<clipPath id="clip1_7171_17455">
<rect width="109" height="208" fill="white" transform="translate(174 68)"/>
</clipPath>
</defs>
</svg>
