<svg preserveAspectRatio="none" width="100%" height="100%" overflow="visible" style="display: block;" viewBox="0 0 80.3127 80.3128" fill="none" xmlns="http://www.w3.org/2000/svg" xmlns:xlink="http://www.w3.org/1999/xlink">
<g id="Group">
<g id="Frame 1000003558">
<g id="Vector">
<path d="M80.3127 0H3.44301e-05V80.3127H80.3127V0Z" fill="var(--fill-0, #C96E0D)"/>
<path d="M80.3127 0H3.44301e-05V80.3127H80.3127V0Z" fill="url(#pattern0_0_1201)" fill-opacity="0.15" style="mix-blend-mode:overlay"/>
</g>
</g>
<path id="Vector_39" d="M18.1212 20.8126L61.6638 10.6073L62.0504 11.9835L18.8325 22.4826L18.1212 20.8126Z" fill="var(--fill-0, white)"/>
<path id="Vector_40" d="M18.8322 22.4841L24.7853 41.2557L26.4861 41.3175L19.6981 21.2007L18.8322 22.4841Z" fill="var(--fill-0, white)"/>
<path id="Vector_41" d="M18.1221 20.8165L13.3287 41.8611L16.2511 41.3972L19.6992 21.1876L18.1221 20.8165Z" fill="var(--fill-0, white)"/>
<path id="Vector_42" d="M39.306 17.3508L39.1514 62.9036L42.0893 61.9294L41.9346 16.8715L39.306 17.3508Z" fill="var(--fill-0, white)"/>
<path id="Vector_43" d="M25.684 61.9753L25.05 65.6863L54.4908 66.1502L53.0991 60.7228L25.684 61.9753Z" fill="var(--fill-0, white)"/>
<path id="Vector_44" d="M72.8595 29.6124L48.877 29.8135L49.109 36.6015L73.1842 35.3955L72.8595 29.6124ZM49.8048 40.8692L50.1295 46.8068L74.2821 46.1419L74.1429 39.3539L49.8048 40.8692Z" fill="var(--fill-0, white)"/>
<path id="Vector_45" d="M60.4124 13.021L66.3655 31.8081L68.0818 31.8699L61.2783 11.7376L60.4124 13.021Z" fill="var(--fill-0, white)"/>
<path id="Vector_46" d="M59.7152 11.3516L54.9218 32.4117L57.8442 31.9478L61.2769 11.7382L59.7152 11.3516Z" fill="var(--fill-0, white)"/>
<path id="Vector_47" d="M6.03092 38.3623L6.18555 45.1194L31.4205 44.0679L31.1267 38.3004L6.03092 38.3623ZM6.88136 49.3561L7.15969 55.2629L32.4565 54.7526L32.3792 47.9954L6.88136 49.3407V49.3561Z" fill="var(--fill-0, white)"/>
<path id="Vector_48" d="M11.0096 59.0372L21.7252 29.9676L27.9875 31.8231L18.277 61.4185L11.0096 59.0372Z" fill="var(--fill-0, white)"/>
<path id="Vector_49" d="M11.0096 59.0372L21.7252 29.9676L27.9875 31.8231L18.277 61.4185L11.0096 59.0372Z" stroke="var(--stroke-0, white)" stroke-width="1.02053"/>
</g>
<defs>
<pattern id="pattern0_0_1201" patternUnits="userSpaceOnUse" patternTransform="matrix(812.012 0 0 1490.54 -365.849 -332.478)" preserveAspectRatio="none" viewBox="0 0 227.02 416.72" width="1" height="1">
<use xlink:href="#pattern0_0_1201_inner" transform="translate(-227.02 0)"/>
<g id="pattern0_0_1201_inner">
<g id="Property 1=Default" clip-path="url(#clip0_0_1201)">
<g id="Calque 3">
<g id="Group_2">
<path id="Vector_2" d="M211.74 55.8L213.27 65.76L217.61 64.49L217.36 53.25L211.74 55.8Z" fill="var(--fill-0, #513893)"/>
<g id="Clip path group">
<mask id="mask0_0_1201" style="mask-type:luminance" maskUnits="userSpaceOnUse" x="0" y="0" width="228" height="209">
<g id="clippath">
<path id="Vector_3" d="M227.02 0H0V208.36H227.02V0Z" fill="var(--fill-0, white)"/>
</g>
</mask>
<g mask="url(#mask0_0_1201)">
<g id="Group_3">
<path id="Vector_4" d="M227.02 45.33C227.02 51.16 221.15 55.89 213.91 55.89C206.67 55.89 200.8 51.17 200.8 45.33C200.8 39.49 206.67 34.77 213.91 34.77C221.15 34.77 227.02 39.5 227.02 45.33Z" fill="var(--fill-0, #513893)"/>
</g>
</g>
</g>
<path id="Vector_5" d="M176.92 21.63L192.04 10.29L207.36 18.9L208.41 42.41L179.23 43.88L176.92 21.63Z" fill="var(--fill-0, #513893)"/>
<path id="Vector_6" d="M135.02 22.0499L133.76 40.7299L138.59 40.5199L138.8 18.6899L135.02 22.0499Z" fill="var(--fill-0, #513893)"/>
<path id="Vector_7" d="M154.96 34.2199L156.23 42.4099L159.79 41.3599L159.58 32.1299L154.96 34.2199Z" fill="var(--fill-0, #513893)"/>
<g id="Clip path group_2">
<mask id="mask1_0_1201" style="mask-type:luminance" maskUnits="userSpaceOnUse" x="0" y="0" width="228" height="209">
<g id="clippath-1">
<path id="Vector_8" d="M227.02 0H0V208.36H227.02V0Z" fill="var(--fill-0, white)"/>
</g>
</mask>
<g mask="url(#mask1_0_1201)">
<g id="Group_4">
<path id="Vector_9" d="M151.11 11.81C151.11 18.34 144.54 23.62 136.44 23.62C128.34 23.62 121.77 18.33 121.77 11.81C121.77 5.29 128.34 0 136.44 0C144.54 0 151.11 5.29 151.11 11.81Z" fill="var(--fill-0, #513893)"/>
<path id="Vector_10" d="M167.53 25.6099C167.53 30.4099 162.7 34.2899 156.75 34.2899C150.8 34.2899 145.97 30.4099 145.97 25.6099C145.97 20.8099 150.8 16.9199 156.75 16.9199C162.7 16.9199 167.53 20.8099 167.53 25.6099Z" fill="var(--fill-0, #513893)"/>
</g>
</g>
</g>
<path id="Vector_11" d="M166.81 67.0801L219.51 71.9101L215.73 117.89L164.92 113.27L166.81 67.0801Z" fill="var(--fill-0, #513893)"/>
<path id="Vector_12" d="M135.2 61.88L150.31 50.54L165.64 59.15L166.69 82.66L137.51 84.13L135.2 61.88Z" fill="var(--fill-0, #513893)"/>
<path id="Vector_13" d="M89.76 38.4601L104.88 27.1201L120.2 35.7301L125.72 75.8501L94.26 78.5101L89.76 38.4601Z" fill="var(--fill-0, #513893)"/>
<path id="Vector_14" d="M119.78 112.1L118.77 120.45L122.82 120.2L123.07 108.81L119.78 112.1Z" fill="var(--fill-0, #513893)"/>
<path id="Vector_15" d="M104.08 107.04L105.1 119.95L110.16 119.44L108.39 103.5L104.08 107.04Z" fill="var(--fill-0, #513893)"/>
<path id="Vector_16" d="M85.1001 111.09L83.0801 119.44L87.6401 119.95L90.4201 109.06L85.1001 111.09Z" fill="var(--fill-0, #513893)"/>
<path id="Vector_17" d="M67.3899 98.1801L68.3999 119.95L73.4599 119.44L71.1799 93.3701L67.3899 98.1801Z" fill="var(--fill-0, #513893)"/>
<g id="Clip path group_3">
<mask id="mask2_0_1201" style="mask-type:luminance" maskUnits="userSpaceOnUse" x="0" y="0" width="228" height="209">
<g id="clippath-2">
<path id="Vector_18" d="M227.02 0H0V208.36H227.02V0Z" fill="var(--fill-0, white)"/>
</g>
</mask>
<g mask="url(#mask2_0_1201)">
<g id="Group_5">
<path id="Vector_19" d="M88.4101 82.4898C88.4101 91.7298 79.1101 99.2198 67.6401 99.2198C56.1701 99.2198 46.8701 91.7298 46.8701 82.4898C46.8701 73.2498 56.1701 65.7598 67.6401 65.7598C79.1101 65.7598 88.4101 73.2498 88.4101 82.4898Z" fill="var(--fill-0, #513893)"/>
<path id="Vector_20" d="M101.32 102.74C101.32 108.83 95.1902 113.76 87.6402 113.76C80.0902 113.76 73.9602 108.83 73.9602 102.74C73.9602 96.6497 80.0902 91.7197 87.6402 91.7197C95.1902 91.7197 101.32 96.6597 101.32 102.74Z" fill="var(--fill-0, #513893)"/>
<path id="Vector_21" d="M118.78 97.6797C118.78 103.32 113.11 107.89 106.11 107.89C99.1102 107.89 93.4402 103.32 93.4402 97.6797C93.4402 92.0397 99.1102 87.4697 106.11 87.4697C113.11 87.4697 118.78 92.0397 118.78 97.6797Z" fill="var(--fill-0, #513893)"/>
<path id="Vector_22" d="M132.65 105.27C132.65 110.21 127.68 114.21 121.55 114.21C115.42 114.21 110.45 110.21 110.45 105.27C110.45 100.33 115.42 96.3296 121.55 96.3296C127.68 96.3296 132.65 100.34 132.65 105.27Z" fill="var(--fill-0, #513893)"/>
</g>
</g>
</g>
<path id="Vector_23" d="M125.72 119.82L155 117.02L160.3 167.37L131.43 170.1L125.72 119.82Z" fill="var(--fill-0, #513893)"/>
<path id="Vector_24" d="M155.54 138.56L170.66 127.22L185.99 135.83L187.04 159.35L157.85 160.82L155.54 138.56Z" fill="var(--fill-0, #513893)"/>
<path id="Vector_25" d="M46.8701 25.92L61.5001 13.96L77.1701 21.92L79.2101 45.37L50.1101 48.06L46.8701 25.92Z" fill="var(--fill-0, #513893)"/>
<path id="Vector_26" d="M98.4899 147.88L94.1699 163.7L97.4699 165.28L101.76 146.66L98.4899 147.88Z" fill="var(--fill-0, #513893)"/>
<g id="Clip path group_4">
<mask id="mask3_0_1201" style="mask-type:luminance" maskUnits="userSpaceOnUse" x="0" y="0" width="228" height="209">
<g id="clippath-3">
<path id="Vector_27" d="M227.02 0H0V208.36H227.02V0Z" fill="var(--fill-0, white)"/>
</g>
</mask>
<g mask="url(#mask3_0_1201)">
<g id="Group_6">
<path id="Vector_28" d="M118.56 143.85C117.11 150.47 108.96 154.32 100.35 152.44C91.7399 150.56 85.9399 143.66 87.3899 137.03C88.8399 130.4 96.9899 126.56 105.6 128.44C114.21 130.32 120.01 137.22 118.56 143.85Z" fill="var(--fill-0, #513893)"/>
</g>
</g>
</g>
<path id="Vector_29" d="M196.69 143.13L213.86 135.24L227.02 146.9L223.07 170.1L194.24 165.37L196.69 143.13Z" fill="var(--fill-0, #513893)"/>
<path id="Vector_30" d="M0 36.4901L29.4 35.3301L31.87 85.9001L2.89 87.0101L0 36.4901Z" fill="var(--fill-0, #513893)"/>
<path id="Vector_31" d="M102.97 182.06L117.6 170.1L133.27 178.06L135.31 201.51L106.21 204.2L102.97 182.06Z" fill="var(--fill-0, #513893)"/>
<path id="Vector_32" d="M154.59 200.17L155.85 208.36L159.42 207.31L159.21 198.07L154.59 200.17Z" fill="var(--fill-0, #513893)"/>
<g id="Clip path group_5">
<mask id="mask4_0_1201" style="mask-type:luminance" maskUnits="userSpaceOnUse" x="0" y="0" width="228" height="209">
<g id="clippath-4">
<path id="Vector_33" d="M227.02 0H0V208.36H227.02V0Z" fill="var(--fill-0, white)"/>
</g>
</mask>
<g mask="url(#mask4_0_1201)">
<g id="Group_7">
<path id="Vector_34" d="M167.16 191.55C167.16 196.35 162.33 200.23 156.38 200.23C150.43 200.23 145.6 196.34 145.6 191.55C145.6 186.76 150.43 182.86 156.38 182.86C162.33 182.86 167.16 186.75 167.16 191.55Z" fill="var(--fill-0, #513893)"/>
</g>
</g>
</g>
<path id="Vector_35" d="M87.1701 144.58L72.2601 133.87L56.0901 142.27L56.3001 165.57L84.8601 167.88L87.1701 144.58Z" fill="var(--fill-0, #513893)"/>
<path id="Vector_36" d="M47.2801 148.99L48.1201 165.36L44.5501 166.2L44.3401 147.1L47.2801 148.99Z" fill="var(--fill-0, #513893)"/>
<g id="Clip path group_6">
<mask id="mask5_0_1201" style="mask-type:luminance" maskUnits="userSpaceOnUse" x="0" y="0" width="228" height="209">
<g id="clippath-5">
<path id="Vector_37" d="M227.02 0H0V208.36H227.02V0Z" fill="var(--fill-0, white)"/>
</g>
</mask>
<g mask="url(#mask5_0_1201)">
<g id="Group_8">
<path id="Vector_38" d="M28.3799 137.65C28.3799 144.43 35.5299 149.93 44.3399 149.93C53.1499 149.93 60.2999 144.43 60.2999 137.65C60.2999 130.87 53.1499 125.36 44.3399 125.36C35.5299 125.36 28.3799 130.86 28.3799 137.65Z" fill="var(--fill-0, #513893)"/>
</g>
</g>
</g>
</g>
</g>
</g>
</g>
<use xlink:href="#pattern0_0_1201_inner" transform="translate(-113.51 208.36)"/>
<use xlink:href="#pattern0_0_1201_inner" transform="translate(113.51 208.36)"/>
</pattern><clipPath id="clip0_0_1201">
<rect width="227.02" height="208.36" fill="white"/>
</clipPath>
</defs>
</svg>
