<svg width="427" height="427" viewBox="0 0 427 427" fill="none" xmlns="http://www.w3.org/2000/svg">
<path d="M311.179 177.564C303.932 172.566 258.966 167.568 258.966 167.568L243.072 156.289L255.151 180.23C262.181 225.845 264.264 269.878 258.483 311.395H262.115L267.829 303.382L274.493 311.395L282.34 314.86L287.188 325.44C296.002 329.338 300.033 338.551 303.965 352.262L274.31 358.527C269.5 358.647 264.74 357.534 260.482 355.295C260.482 355.295 253.935 392.763 254.484 419.869H307.347C307.812 418.133 308.003 416.334 307.914 414.538L297.634 377.203C316.56 376.137 343.533 350.863 349.447 316.66C358.61 263.314 320.192 195.357 311.179 177.564Z" fill="#C2C2C2"/>
<path d="M122.953 188.626C122.953 188.626 115.456 188.876 113.79 191.408C104.96 204.92 77.5375 310.695 79.82 338.884C81.286 356.727 103.644 370.938 124.702 378.202L104.56 407.924C105.077 410.923 107.526 415.138 111.341 419.836H199.923C206.204 403.83 211.185 387.344 214.817 370.538C214.817 370.538 214.051 371.005 208.77 371.005C203.488 371.005 196.808 366.94 196.808 366.94L185.895 365.707C186.412 365.124 186.695 364.741 186.695 364.741H155.64C155.307 350.58 170.801 331.137 170.801 331.137L193.259 334.869C192.609 329.488 196.774 323.557 199.423 322.574C202.072 321.591 206.77 319.608 209.636 315.91C212.501 312.211 208.536 308.446 213.484 307.113C218.432 305.78 219.732 317.443 219.732 317.443C223.064 277.025 186.562 179.047 186.562 179.047L122.953 188.626Z" fill="#C2C2C2"/>
<path d="M199.922 419.836C199.922 419.836 213.834 382.701 214.817 370.539L230.527 364.041L231.76 361.642V355.828L234.426 344.915L231.743 332.887L227.395 324.89L218.815 322.774L220.081 315.394C220.081 315.394 218.415 276.509 210.918 256.367C203.421 236.225 192.842 196.49 192.842 196.49C192.842 196.49 232.826 218.831 257.3 194.691C257.3 194.691 267.962 284.839 258.749 309.846L256.45 313.678L252.269 316.626V324.957L251.452 334.42L253.118 344.416L256.3 351.996L260.582 355.328C260.582 355.328 253.718 405.458 254.584 419.903L199.922 419.836Z" fill="#ECECEC"/>
<path d="M219.781 92.3304C219.781 92.3304 225.296 87.1158 240.323 92.3304" stroke="#010101" stroke-width="3.33203" stroke-linecap="round" stroke-linejoin="round"/>
<path d="M201.339 94.5296C201.339 94.5296 196.791 88.432 181.83 95.3459" stroke="#010101" stroke-width="3.33203" stroke-linecap="round" stroke-linejoin="round"/>
<path d="M214.697 136.364C216.858 136.349 218.976 135.764 220.837 134.667C222.698 133.57 224.235 131.999 225.293 130.116" stroke="#010101" stroke-width="3.33203" stroke-linecap="round" stroke-linejoin="round"/>
<path d="M210.619 96.1123C210.419 106.108 205.104 117.771 207.287 120.719C208.953 123.118 214.101 122.869 214.101 122.869" stroke="#010101" stroke-width="3.33203" stroke-linecap="round" stroke-linejoin="round"/>
<path d="M286.955 324.973C286.955 324.973 307.53 313.461 310.079 306.53C316.294 289.62 296.235 235.791 296.235 235.791" stroke="#010101" stroke-width="3.33203" stroke-linecap="round" stroke-linejoin="round"/>
<path d="M303.931 352.229C303.931 352.229 274.493 358.643 272.177 358.493C269.861 358.343 254.984 356.011 254.834 348.497C253.77 346.921 253.032 345.148 252.663 343.283C252.294 341.418 252.302 339.497 252.685 337.635C252.685 337.635 249.886 330.371 252.435 325.973C252.435 325.973 249.553 317.409 254.001 314.444C256.549 312.688 259.674 311.978 262.731 312.461C262.731 312.461 264.214 304.898 267.845 303.981C271.477 303.065 272.627 311.478 275.592 312.145C277.92 312.802 280.158 313.742 282.256 314.944L287.105 325.523C287.105 325.523 302.282 338.884 303.931 352.229Z" stroke="#010101" stroke-width="3.33203" stroke-linecap="round" stroke-linejoin="round"/>
<path d="M262.729 312.344C267.843 314.01 272.508 314.21 276.54 312.344" stroke="#010101" stroke-width="3.33203" stroke-linecap="round" stroke-linejoin="round"/>
<path d="M252.434 325.856H262.43L270.976 324.973" stroke="#010101" stroke-width="3.33203" stroke-linecap="round" stroke-linejoin="round"/>
<path d="M252.684 337.568L265.679 338.884L272.176 335.535" stroke="#010101" stroke-width="3.33203" stroke-linecap="round" stroke-linejoin="round"/>
<path d="M254.836 348.43L266.698 349.064L276.544 346.065" stroke="#010101" stroke-width="3.33203" stroke-linecap="round" stroke-linejoin="round"/>
<path d="M172.448 333.203C172.448 333.203 137.895 327.939 132.214 320.641C125.333 311.812 135.863 276.692 135.863 276.692" stroke="#010101" stroke-width="3.33203" stroke-linecap="round" stroke-linejoin="round"/>
<path d="M212.833 307.413C215.199 307.413 225.828 314.994 218.081 323.557C218.081 323.557 232.092 320.225 231.759 335.536C231.759 335.536 236.54 343.066 233.075 347.564C233.075 347.564 234.225 353.712 230.443 357.327C230.443 357.327 234.558 362.942 227.977 365.657C221.396 368.373 214.916 370.855 210.334 370.655C206.785 370.455 196.823 366.207 196.823 366.207L155.639 364.874C155.639 364.874 160.42 336.535 172.449 333.203L193.257 334.869C193.257 334.869 193.674 325.29 199.422 322.574C205.169 319.858 210.267 317.576 210.517 314.244C210.767 310.912 210.184 307.463 212.833 307.413Z" stroke="#010101" stroke-width="3.33203" stroke-linecap="round" stroke-linejoin="round"/>
<path d="M231.761 335.535C231.761 335.535 229.229 337.718 214.734 335.535" stroke="#010101" stroke-width="3.33203" stroke-linecap="round" stroke-linejoin="round"/>
<path d="M233.076 347.564L221.547 349.064" stroke="#010101" stroke-width="3.33203" stroke-linecap="round" stroke-linejoin="round"/>
<path d="M230.443 357.327L217.814 358.493" stroke="#010101" stroke-width="3.33203" stroke-linecap="round" stroke-linejoin="round"/>
<path d="M193.258 334.869C193.591 337.951 194.924 353.762 194.924 353.762" stroke="#010101" stroke-width="3.33203" stroke-linecap="round" stroke-linejoin="round"/>
<path d="M282.305 314.877C285.513 323.003 287.093 331.681 286.953 340.417" stroke="#010101" stroke-width="3.33203" stroke-linecap="round" stroke-linejoin="round"/>
<path d="M107.176 370.522C107.176 370.522 143.328 386.932 169.252 380.668C177.031 378.048 183.642 372.776 187.928 365.774" stroke="#010101" stroke-width="3.33203" stroke-linecap="round" stroke-linejoin="round"/>
<path d="M279.74 357.327C279.74 357.327 282.939 377.319 296.95 376.319C310.961 375.32 337.884 359.809 342.216 338.884" stroke="#010101" stroke-width="3.33203" stroke-linecap="round" stroke-linejoin="round"/>
<path d="M254.717 195.357C230.976 213.25 194.957 196.673 194.957 196.673" stroke="#010101" stroke-width="3.33203" stroke-linecap="round" stroke-linejoin="round"/>
<path d="M191.592 147.026C194.465 150.911 198.282 153.999 202.681 155.999C207.079 157.999 211.916 158.844 216.732 158.455C223.471 157.809 229.877 155.222 235.175 151.008" stroke="#010101" stroke-width="3.33203" stroke-linecap="round" stroke-linejoin="round"/>
<path d="M293.117 172.466C293.117 172.466 307.661 174.132 311.177 177.564C314.692 180.996 325.021 203.67 325.021 203.67" stroke="#010101" stroke-width="3.33203" stroke-linecap="round" stroke-linejoin="round"/>
<path d="M207.035 68.8233C225.361 68.8233 234.108 64.6749 235.357 65.4912C238.689 67.6904 239.139 87.1494 249.685 96.0793C249.685 96.0793 250.018 88.4656 253.317 91.0812C255.216 92.564 252.534 114.405 251.651 116.455C251.45 116.994 251.088 117.459 250.614 117.787C250.141 118.115 249.578 118.289 249.002 118.287C249.002 118.287 245.487 138.063 241.971 143.761C238.456 149.458 243.071 156.289 243.071 156.289L258.965 167.568C295.617 134.098 265.412 126.068 262.73 111.04C258.815 88.9321 291.552 49.2642 241.971 52.1298C236.707 31.4712 206.052 10.1629 174.081 45.0992C145.759 76.0704 138.828 74.0879 136.846 93.8635C134.863 113.639 164.535 124.518 156.605 137.696C148.674 150.875 131.431 161.97 120.885 194.491C110.339 227.011 141.277 226.478 144.426 242.372C147.575 258.266 114.954 288.071 148.824 301.249C183.277 314.677 210.334 274.01 180.479 232.709C164.918 211.201 179.596 195.357 186.626 179.114C193.657 162.87 195.923 147.459 188.609 128.8C171.116 78.3029 207.035 68.8233 207.035 68.8233Z" fill="#010101"/>
<path d="M193.959 102.41C195.523 102.41 196.791 101.142 196.791 99.5778C196.791 98.0136 195.523 96.7456 193.959 96.7456C192.395 96.7456 191.127 98.0136 191.127 99.5778C191.127 101.142 192.395 102.41 193.959 102.41Z" fill="#010101"/>
<path d="M228.145 99.5613C229.709 99.5613 230.977 98.2933 230.977 96.7291C230.977 95.1649 229.709 93.8969 228.145 93.8969C226.581 93.8969 225.312 95.1649 225.312 96.7291C225.312 98.2933 226.581 99.5613 228.145 99.5613Z" fill="#010101"/>
</svg>